<?xml version="1.0" encoding="utf-8"?>
<svg xmlns="http://www.w3.org/2000/svg" viewBox="1055 305 715 710" width="200" height="200">
  <g fill="#13172b">
    <path d="M1602.62 976.80 c-4.50 -0.82 -4.71 -1.64 -3.89 -12.07 l1.02 -11.05 -4.50 4.09 c-2.87 2.66 -7.16 4.09 -12.48 4.09 -7.37 0 -9.41 -1.43 -27.01 -19.03 -25.99 -25.99 -25.79 -27.01 1.43 -52.19 18.42 -16.99 21.08 -18.83 28.24 -18.83 9.82 0 16.99 6.55 16.99 15.35 0 4.50 -2.87 9 -11.67 17.80 l-11.67 11.87 10.64 10.85 c8.60 8.60 10.64 12.28 10.85 17.80 0.20 8.19 0.20 8.19 18.62 -54.64 l10.44 -35.40 10.44 0 c5.73 0 12.69 0.61 15.35 1.43 4.50 1.23 4.71 2.05 3.68 11.46 -1.23 9.62 -1.23 10.03 2.46 6.75 2.25 -2.05 7.16 -3.27 12.69 -3.27 9 0 9.82 0.61 28.04 19.24 25.79 26.20 25.79 27.22 -1.02 52.19 -17.40 16.17 -21.08 18.62 -27.42 18.62 -9.41 0 -16.17 -6.75 -16.17 -16.58 0 -5.93 1.84 -9 11.05 -18.01 l10.85 -10.85 -10.85 -10.23 c-9.82 -9.21 -11.05 -11.46 -11.26 -18.83 l-0.20 -8.39 -2.66 8.19 c-1.64 4.50 -8.60 26.81 -15.55 49.73 l-12.69 41.34 -9.41 -0.20 c-5.12 -0.20 -11.67 -0.82 -14.33 -1.23z"/>
    <path d="M1118.62 964.52 c-8.60 -1.23 -14.73 -5.93 -18.42 -13.92 -2.87 -6.14 -3.27 -37.66 -3.27 -313.93 0 -331.33 -0.41 -316.60 10.44 -324.37 4.30 -3.07 30.49 -3.27 300.63 -3.27 264.82 0 296.33 0.41 300.43 3.27 11.26 7.78 10.64 -5.73 10.64 263.80 0 245.99 0 248.65 -4.09 252.74 -3.89 3.89 -6.75 4.09 -84.93 4.09 -88 0 -86.57 -0.20 -97.41 11.67 -3.07 3.07 -18.83 25.38 -35.20 49.53 -40.93 59.96 -46.46 66.92 -56.07 69.58 -7.57 2.25 -309.02 2.87 -322.73 0.82z m306.77 -107.03 l0 -11.26 -134.46 -0.61 -134.66 -0.41 0 11.05 c0 11.05 0 11.26 6.75 12.07 3.48 0.41 64.06 0.61 134.46 0.61 l127.91 -0.20 0 -11.26z m233.92 -84.32 l0.61 -11.87 -251.93 0 -251.72 0 0 10.85 c0 6.14 0.61 11.67 1.43 12.28 0.61 0.82 113.79 1.23 251.11 1.02 l249.88 -0.61 0.61 -11.67z m-10.44 -101.30 c-0.20 -10.03 -0.61 -1.84 -0.61 17.80 0 19.65 0.41 27.83 0.61 18.01 0.41 -10.03 0.41 -25.99 0 -35.81z m-36.22 17.80 l0 -12.28 -228.19 0 -228.19 0 0 10.85 c0 6.14 0.61 11.67 1.43 12.28 0.61 0.82 103.35 1.43 228.19 1.43 l226.75 0 0 -12.28z m-199.33 -74.90 c11.05 -7.37 11.05 -7.16 11.05 -110.31 0 -104.58 0 -104.17 -12.28 -110.51 -8.60 -4.50 -231.67 -4.71 -242.51 -0.20 -13.51 5.73 -13.30 4.71 -13.30 110.72 0 105.19 -0.20 103.76 12.69 110.10 5.93 3.07 19.85 3.48 123 3.48 104.58 0 116.65 -0.41 121.36 -3.27z m246.40 -7.98 l0 -11.26 -88 0 -88 0 0 11.26 0 11.26 88 0 88 0 0 -11.26z"/>
    <path d="M1374.85 549.90 l-25.79 -27.01 -12.69 13.92 c-11.46 12.28 -13.51 13.71 -20.47 13.71 -7.57 0 -9.62 -1.64 -37.25 -29.88 l-29.47 -29.88 -34.59 38.07 c-31.52 34.59 -35.40 38.07 -41.54 38.07 l-6.55 0 0.41 -82.27 0.61 -82.47 122.79 0 122.59 0 1.23 6.14 c0.61 3.48 0.82 42.77 0.41 87.59 l-0.82 81.25 -6.34 0 c-5.73 -0.20 -10.03 -3.68 -32.54 -27.22z m-16.17 -83.50 c3.48 -3.48 6.34 -8.19 6.34 -10.44 0 -5.32 -10.85 -15.96 -16.37 -15.96 -5.32 0 -16.37 10.64 -16.37 15.76 0.20 6.55 10.85 16.78 17.80 16.99 1.23 0 5.12 -2.87 8.60 -6.34z"/>
  </g>
  <g fill="#07cffe">
    <path d="M1107.78 1003.81 c-22.10 -6.75 -39.29 -23.33 -47.48 -45.23 -4.30 -11.26 -4.30 -11.46 -3.89 -325.80 l0.61 -314.55 5.73 -10.85 c8.19 -15.55 20.47 -28.04 33.97 -34.59 l11.46 -5.73 297.15 -0.61 297.15 -0.41 11.87 4.30 c14.94 5.73 31.52 21.08 38.88 36.43 l5.73 11.46 0.61 315.57 c0.41 314.55 0.41 315.57 -3.68 326.83 -6.14 16.17 -20.26 31.11 -37.66 39.29 l-14.33 6.96 -293.88 -0.20 c-236.78 0 -295.31 -0.61 -302.27 -2.87z m523.91 -68.97 c22.10 -71.22 21.69 -69.99 18.01 -71.63 -3.89 -1.64 -14.53 -2.05 -14.53 -0.61 0 0.41 -6.96 24.35 -15.35 53.21 -8.39 28.65 -15.35 52.60 -15.35 53 0 1.02 6.55 2.46 12.48 3.07 2.46 0.20 5.93 -8.39 14.73 -37.04z m-196.47 22.72 c9.62 -2.66 15.14 -9.62 56.07 -69.58 16.37 -24.15 32.13 -46.46 35.20 -49.53 10.85 -11.87 9.41 -11.67 97.41 -11.67 78.18 0 81.04 -0.20 84.93 -4.09 4.09 -4.09 4.09 -6.75 4.09 -246.60 0 -262.77 0.61 -249.88 -10.64 -257.66 -4.09 -2.87 -35 -3.27 -294.29 -3.27 -264.61 0 -290.20 0.20 -294.49 3.27 -10.85 7.78 -10.44 -6.55 -10.44 318.23 0 270.55 0.41 301.66 3.27 307.80 3.68 7.98 9.82 12.69 18.42 13.92 13.71 2.05 302.88 1.43 310.46 -0.82z m154.92 -6.96 l4.91 -5.32 -14.53 -14.73 -14.53 -14.73 15.14 -14.12 15.35 -14.12 -4.50 -4.71 c-2.46 -2.66 -5.53 -4.91 -6.75 -4.91 -1.23 0.20 -11.46 8.80 -22.72 19.44 l-20.47 19.24 19.44 19.65 c10.64 10.64 20.47 19.44 21.69 19.44 1.23 0 4.30 -2.25 6.96 -5.12z m105.40 -14.12 l20.47 -19.03 -19.24 -19.85 c-10.64 -10.85 -20.67 -19.65 -22.51 -19.65 -3.68 0 -10.44 5.93 -10.44 9.41 0 1.43 5.93 7.98 13.30 14.73 7.37 6.75 13.30 12.89 13.30 13.92 0 1.02 -6.14 7.98 -13.71 15.55 l-13.71 13.71 4.91 5.32 c2.66 2.87 5.32 5.12 5.93 5.12 0.61 0 10.44 -8.60 21.69 -19.24z"/>
    <path d="M1156.89 874.47 l-6.75 -0.82 0 -17.40 0 -17.19 140.80 0.41 140.60 0.61 0 17.40 0 17.40 -134.05 0.20 c-73.67 0 -137.12 -0.20 -140.60 -0.61z"/>
    <path d="M1151.57 790.57 c-0.82 -0.61 -1.43 -9 -1.43 -18.42 l0 -16.99 257.86 0 258.07 0 -0.61 18.01 -0.61 17.80 -256.02 0.61 c-140.80 0.20 -256.63 -0.20 -257.25 -1.02z"/>
    <path d="M1642.73 731.22 c-0.82 -0.61 -1.43 -20.06 -1.43 -42.98 l0 -41.75 6.75 0.61 6.55 0.61 0.61 40.73 c0.61 42.36 0.20 44 -7.98 44.20 -1.84 0 -3.89 -0.61 -4.50 -1.43z"/>
    <path d="M1151.57 706.66 c-0.82 -0.61 -1.43 -9 -1.43 -18.42 l0 -16.99 234.94 0 234.94 0 -0.20 6.75 c-0.20 3.48 -0.41 11.87 -0.61 18.42 l-0.41 11.67 -232.89 0 c-128.11 0 -233.71 -0.61 -234.33 -1.43z"/>
    <path d="M1477.58 606.79 l0 -17.40 94.14 0 94.14 0 0 17.40 0 17.40 -94.14 0 -94.14 0 0 -17.40z"/>
  </g>
  <g fill="#a0a7ba">
    <path d="M1654.20 663.07 c0 -8.39 0.41 -11.87 0.82 -7.57 0.41 4.09 0.41 11.05 0 15.35 -0.41 4.09 -0.82 0.61 -0.82 -7.78z"/>
    <path d="M1162.83 620.71 c-12.89 -6.34 -12.69 -4.30 -12.69 -116.24 0 -112.76 -0.20 -111.13 13.30 -116.86 10.85 -4.50 246.20 -4.30 254.79 0.20 12.48 6.34 12.28 5.32 12.28 116.65 0 109.90 0 109.08 -11.05 116.45 -4.71 2.87 -17.19 3.27 -127.50 3.27 -108.87 0 -123.20 -0.41 -129.13 -3.48z m245.17 -206.29 l-1.23 -6.14 -116.04 -0.61 c-92.09 -0.41 -116.45 0 -117.06 2.05 -0.61 1.43 -0.82 36.02 -0.61 76.74 l0.61 74.29 37.66 -41.34 37.66 -41.13 32.54 32.95 c18.01 18.21 33.36 33.15 34.18 33.15 1.02 0 8.19 -6.96 16.17 -15.55 10.85 -11.67 15.55 -15.35 18.21 -14.33 2.05 0.61 15.76 13.51 30.29 28.65 l26.60 27.42 1.02 -75.11 c0.61 -41.13 0.61 -77.56 0 -81.04z"/>
    <path d="M1336.17 475.81 c-3.07 -1.64 -6.96 -6.34 -9 -10.44 -2.87 -6.34 -3.07 -8.80 -1.23 -15.35 3.27 -10.85 10.64 -16.17 22.51 -16.17 11.26 0 18.01 4.09 21.90 13.51 3.68 9 1.64 18.01 -5.73 25.58 -4.71 4.71 -7.78 5.93 -14.53 5.93 -4.71 -0.20 -11.05 -1.43 -13.92 -3.07z"/>
  </g>
</svg>
