<?xml version="1.0" encoding="utf-8"?>
<!-- Generator: Adobe Illustrator 30.1.0, SVG Export Plug-In . SVG Version: 9.03 Build 0)  -->
<svg version="1.0" id="Layer_1" xmlns="http://www.w3.org/2000/svg" xmlns:xlink="http://www.w3.org/1999/xlink" x="0px" y="0px"
	 viewBox="0 0 600 400" style="enable-background:new 0 0 600 400;" xml:space="preserve">
<style type="text/css">
	.st0{fill:#D3D3D3;}
	.st1{fill:#595A5C;}
	.st2{fill:#F9B6A5;}
	.st3{fill:#D0E6F7;}
	.st4{fill:#F2F2F2;}
	.st5{fill:#124B98;}
	.st6{fill:#AB2823;}
	.st7{fill:#EC2227;}
	.st8{fill:#3262AE;}
	.st9{fill:#2057A7;}
	.st10{fill:#424143;}
	.st11{fill:#FABAAB;}
	.st12{fill:#231F20;}
</style>
<rect class="st0" width="600" height="400"/>
<path class="st1" d="M265.28,45.98h75.86c20.93,0,37.93,17,37.93,37.93v56.9H227.35v-56.9C227.35,62.98,244.35,45.98,265.28,45.98z"
	/>
<rect x="271.61" y="191.38" class="st2" width="63.22" height="88.51"/>
<path class="st2" d="M360.11,162.93v-34.77h9.86c10.68,0,18.27,10.49,14.86,20.61c-1.71,5.18-4.99,9.48-9.17,12.52
	c-4.24,3.03-9.36,4.8-14.79,4.8h-0.89C360.11,165.02,360.11,164.01,360.11,162.93z"/>
<path class="st2" d="M246.44,166.09h-0.89c-5.44,0-10.56-1.77-14.79-4.8c-4.17-3.03-7.46-7.33-9.17-12.52
	c-3.41-10.11,4.17-20.61,14.86-20.61h9.86v34.77C246.32,164.01,246.32,165.02,246.44,166.09z"/>
<polygon class="st3" points="285.64,278.94 285.64,278.96 303.21,267.24 271.61,246.17 271.61,246.19 271.61,246.17 265.28,241.95 
	252.64,254.6 263.73,295.29 285.64,278.96 "/>
<polygon class="st4" points="285.64,278.96 263.73,295.29 282.42,363.79 290.57,298.85 285.64,279 "/>
<path class="st5" d="M240,298.85l-0.91,2.73c-7.4,22.21-4.14,46.59,8.85,66.07l17.35,26.03h25.29l-8.15-29.88v0.04v0.06v-0.11
	l-29.78-109.2l-16.32,2.17l-15.29,35.76L240,298.85L240,298.85z"/>
<polygon class="st6" points="303.21,267.24 285.64,278.96 285.64,279 290.57,298.85 303.21,305.17 315.86,298.85 320.62,279.68 "/>
<polygon class="st4" points="315.86,298.85 324.01,363.79 342.66,295.42 320.62,279.68 "/>
<polygon class="st3" points="341.15,241.95 334.82,246.17 303.21,267.24 320.62,279.68 342.66,295.42 353.79,254.6 "/>
<path class="st5" d="M324.01,363.84v0.06v-0.11l-8.16,29.88h25.29l17.35-26.03c12.99-19.48,16.25-43.86,8.85-66.07l-0.91-2.73
	l18.97-6.32l-15.29-35.76l-16.32-2.17l-29.78,109.2L324.01,363.84L324.01,363.84z"/>
<polygon class="st7" points="315.86,298.85 303.21,305.17 290.57,298.85 282.42,363.79 290.57,393.68 315.86,393.68 324.01,363.79 
	"/>
<path class="st8" d="M239.09,301.58l0.91-2.73l-18.97-6.32l15.29-35.76l-1.69,0.23c-43.97,5.86-76.81,43.37-76.81,87.73v48.95
	h107.47l-17.35-26.03C234.95,348.17,231.68,323.79,239.09,301.58z"/>
<path class="st8" d="M371.81,257l-1.69-0.23l15.29,35.76l-18.97,6.32l0.91,2.73c7.4,22.21,4.14,46.59-8.85,66.07l-17.35,26.03
	h107.47v-48.95C448.62,300.37,415.78,262.86,371.81,257z"/>
<path class="st9" d="M371.81,257l-1.69-0.23l5.82,13.62c41.86,7.6,72.68,44.04,72.68,86.98v-12.64
	C448.62,300.37,415.78,262.86,371.81,257z"/>
<path class="st9" d="M234.62,257l1.69-0.23l-5.82,13.62c-41.86,7.6-72.68,44.04-72.68,86.98v-12.64
	C157.81,300.37,190.65,262.86,234.62,257z"/>
<path class="st10" d="M347.47,64.94c0-20.95-16.98-37.93-37.93-37.93h-75.86c0,41.89,33.97,75.86,75.86,75.86h37.93V64.94z"/>
<path class="st11" d="M347.47,102.87h-75.86c-13.96,0-25.29,11.32-25.29,25.29v34.78c0,24.98,14.71,47.62,37.55,57.77l3.95,1.76
	c9.81,4.36,21,4.36,30.81,0l3.95-1.76c22.83-10.15,37.55-32.79,37.55-57.77v-47.42c0-6.99-5.66-12.64-12.64-12.64H347.47z"/>
<path class="st12" d="M271.61,140.8h18.97c3.5,0,6.32-2.83,6.32-6.32c0-3.49-2.83-6.32-6.32-6.32h-18.97c-3.5,0-6.32,2.83-6.32,6.32
	C265.28,137.97,268.11,140.8,271.61,140.8z"/>
<path class="st12" d="M315.86,140.8h18.97c3.5,0,6.32-2.83,6.32-6.32c0-3.49-2.83-6.32-6.32-6.32h-18.97c-3.5,0-6.32,2.83-6.32,6.32
	C309.54,137.97,312.36,140.8,315.86,140.8z"/>
<path class="st12" d="M315.86,147.13v6.32c0,3.49,2.83,6.32,6.32,6.32c3.5,0,6.32-2.83,6.32-6.32v-6.32c0-3.49-2.83-6.32-6.32-6.32
	C318.68,140.8,315.86,143.64,315.86,147.13z"/>
<path class="st12" d="M277.93,147.13v6.32c0,3.49,2.83,6.32,6.32,6.32c3.5,0,6.32-2.83,6.32-6.32v-6.32c0-3.49-2.83-6.32-6.32-6.32
	C280.75,140.8,277.93,143.64,277.93,147.13z"/>
<path class="st12" d="M372.63,250.74l-15.87-2.15l-11.13-11.13c-1.26-1.2-2.84-1.77-4.49-1.77v-19.16
	c13.47-11.13,22.38-26.99,24.66-44.51c4.87-0.76,9.48-2.66,13.59-5.63c5.44-3.92,9.36-9.36,11.44-15.61
	c2.28-6.76,1.2-13.97-2.97-19.79c-0.76-1.01-1.58-1.83-2.47-2.66V83.91c0-22.89-17.01-41.53-39.32-43.94
	c-8.03-11.63-21.37-19.28-36.54-19.28h-75.86c-3.48,0-6.32,2.84-6.32,6.32c0,9.67,1.77,18.97,4.87,27.63
	c-7.14,7.97-11.19,18.4-11.19,29.27v44.44c-0.89,0.82-1.71,1.64-2.47,2.66c-4.17,5.82-5.25,13.02-2.97,19.72
	c2.09,6.32,6.01,11.76,11.51,15.68c4.11,2.97,8.66,4.87,13.53,5.63c2.28,17.51,11.19,33.38,24.66,44.51v19.16
	c-1.64,0-3.22,0.57-4.49,1.77l-11.13,11.13l-15.87,2.15c-46.91,6.26-82.31,46.66-82.31,94.01v48.93c0,3.48,2.84,6.32,6.32,6.32
	h290.81c3.48,0,6.32-2.84,6.32-6.32v-48.93C454.94,297.4,419.54,257,372.63,250.74z M346.71,256.49l-7.4,27.18l-24.72-16.44
	l25.73-17.13L346.71,256.49z M303.21,259.65l-25.29-16.88v-17.95c1.14,0.57,2.21,1.14,3.35,1.64l3.98,1.77
	c5.69,2.53,11.82,3.79,17.95,3.79s12.26-1.26,17.95-3.79l3.98-1.77c1.14-0.51,2.21-1.07,3.35-1.64v17.95
	C328.5,242.78,303.21,259.65,303.21,259.65z M313.58,281.78l-3.16,12.71l-7.21,3.6l-7.21-3.6l-3.16-12.71l10.37-6.95L313.58,281.78z
	 M377.56,138.4c1.77,2.47,2.28,5.5,1.26,8.41c-1.26,3.73-3.6,7.02-6.83,9.36c-1.71,1.2-3.6,2.15-5.56,2.72v-24.4h3.54
	C373.01,134.48,375.79,135.94,377.56,138.4z M372.75,83.91v38.25c-0.95-0.13-1.83-0.32-2.78-0.32h-3.54v-6.32
	c0-8.22-5.31-15.17-12.64-17.83V64.94c0-3.6-0.51-7.08-1.26-10.43C364.41,59.06,372.75,70.38,372.75,83.91z M309.54,33.33
	c17.45,0,31.61,14.16,31.61,31.61v31.61h-31.61c-36.22,0-66.06-27.82-69.29-63.22H309.54z M240,158.88
	c-1.96-0.57-3.79-1.52-5.5-2.72c-3.29-2.34-5.63-5.63-6.89-9.42c-1.01-2.84-0.51-5.88,1.26-8.34c1.77-2.47,4.55-3.92,7.59-3.92H240
	V158.88z M240.63,121.84h-4.17c-0.95,0-1.83,0.19-2.78,0.32V83.91c0-5.75,1.71-11.25,4.61-16.12c6.89,12.01,16.69,22.06,28.45,29.27
	C253.71,99.08,243.28,109,240.63,121.84z M252.64,162.93v-34.77c0-10.43,8.53-18.97,18.97-18.97h75.86c3.48,0,6.32,2.84,6.32,6.32
	v47.41c0,22.44-13.28,42.86-33.76,52.03l-3.98,1.71c-8.16,3.67-17.51,3.67-25.67,0l-3.98-1.71
	C265.92,205.79,252.64,185.37,252.64,162.93z M266.11,250.11l25.73,17.13l-24.72,16.44l-7.4-27.18L266.11,250.11z M221.03,387.36
	v-31.61c0-3.48-2.84-6.32-6.32-6.32c-3.48,0-6.32,2.84-6.32,6.32v31.61h-44.25v-42.61c0-37.74,25.92-70.3,61.7-79.53l-10.62,24.84
	c-0.7,1.58-0.7,3.48,0.06,5.06c0.7,1.64,2.09,2.84,3.73,3.41l13.09,4.36c-6.76,23.26-2.97,47.98,10.56,68.28l10.81,16.18H221.03z
	 M268.7,387.36l-15.49-23.2c-12.01-18.02-14.98-40.08-8.16-60.56l0.95-2.72c0.51-1.58,0.38-3.35-0.38-4.87
	c-0.7-1.45-2.02-2.59-3.6-3.16l-12.45-4.17l11.13-26.11l7.33-0.95l34.26,125.74C282.29,387.36,268.7,387.36,268.7,387.36z
	 M280.14,331.34l-9.48-34.77l11-7.4l2.47,10.05L280.14,331.34z M311.05,387.36h-15.68l-6.51-24.02l6.89-54.81l4.61,2.28
	c0.89,0.44,1.9,0.7,2.84,0.7s1.96-0.25,2.84-0.7l4.61-2.28l6.89,54.81C317.57,363.33,311.05,387.36,311.05,387.36z M324.77,289.18
	l11,7.4l-9.48,34.77l-3.98-32.12C322.31,299.23,324.77,289.18,324.77,289.18z M324.14,387.36l34.26-125.74l7.33,0.95l11.13,26.11
	l-12.45,4.17c-1.58,0.57-2.91,1.71-3.6,3.16c-0.76,1.52-0.89,3.29-0.38,4.87l0.95,2.72c6.83,20.48,3.86,42.55-8.16,60.56
	l-15.49,23.2C337.73,387.36,324.14,387.36,324.14,387.36z M442.3,387.36h-44.25v-31.61c0-3.48-2.84-6.32-6.32-6.32
	s-6.32,2.84-6.32,6.32v31.61h-32.43l10.81-16.18c13.53-20.29,17.32-45.01,10.56-68.28l13.09-4.36c1.64-0.57,3.03-1.77,3.73-3.41
	c0.76-1.58,0.76-3.48,0.06-5.06l-10.62-24.84c35.78,9.23,61.7,41.79,61.7,79.53C442.3,344.75,442.3,387.36,442.3,387.36z"/>
<path class="st12" d="M288.71,180.58c-2.48-2.47-6.47-2.46-8.94,0.01c-2.47,2.47-2.47,6.47,0.01,8.94l1.08,1.07
	c5.96,5.97,13.9,9.26,22.35,9.26c8.45,0,16.39-3.29,22.34-9.26l1.09-1.08c2.48-2.47,2.48-6.47,0.01-8.94
	c-2.47-2.47-6.47-2.48-8.94-0.01l-1.09,1.09c-7.16,7.17-19.65,7.18-26.82,0L288.71,180.58L288.71,180.58z"/>
</svg>
