<?xml version="1.0" encoding="utf-8"?>
<!-- Generator: Adobe Illustrator 30.1.0, SVG Export Plug-In . SVG Version: 9.03 Build 0)  -->
<svg version="1.0" id="Layer_1" xmlns="http://www.w3.org/2000/svg" xmlns:xlink="http://www.w3.org/1999/xlink" x="0px" y="0px"
	 viewBox="0 0 600 400" style="enable-background:new 0 0 600 400;" xml:space="preserve">
<style type="text/css">
	.st0{fill:#D3D3D3;}
	.st1{fill:#764D2A;}
	.st2{fill:#8B5F3D;}
	.st3{fill:#FABAAB;}
	.st4{fill:#F9B6A5;}
	.st5{fill:#6E6F72;}
	.st6{fill:#595A5C;}
	.st7{fill:#424143;}
	.st8{fill:#FFCE04;}
	.st9{fill:#231F20;}
</style>
<rect class="st0" width="600" height="400"/>
<g>
	<path class="st1" d="M362.81,52.3h16.63c20.93,0,37.93,17.01,37.93,37.93V254.6l-15.17-11.38c-20.61-15.43-33.38-39.01-35.15-64.48
		L362.81,52.3z"/>
	<path class="st2" d="M303.57,27.01c-45.39,0-82.18,36.79-82.18,82.18v50.57c0-10.48,8.49-18.97,18.97-18.97h6.32v-6.32l0,0
		c16.41-8.21,29.73-21.52,37.93-37.93c12.24,16.32,29.91,27.72,49.82,32.15l26.04,5.78v6.32h6.32c10.48,0,18.97,8.49,18.97,18.97
		v-50.57C385.75,63.8,348.96,27.01,303.57,27.01z"/>
	<path class="st3" d="M334.43,128.7c-19.91-4.43-37.58-15.82-49.82-32.15c-8.21,16.41-21.52,29.73-37.93,37.93l0,0v41.1
		c0,24.98,14.71,47.62,37.55,57.77l3.95,1.76c9.81,4.36,21,4.36,30.81,0l3.95-1.76c22.83-10.15,37.55-32.79,37.55-57.77v-41.1
		l-26.04-5.78H334.43z"/>
	<path class="st4" d="M366.79,140.8h-6.32v37.93h6.32c10.48,0,18.97-8.49,18.97-18.97S377.26,140.8,366.79,140.8z"/>
	<path class="st4" d="M240.35,140.8c-10.48,0-18.97,8.49-18.97,18.97s8.49,18.97,18.97,18.97h6.32V140.8H240.35z"/>
	<path class="st5" d="M303.57,393.68l63.22-63.22l-12.64-31.61h25.29l-13.72-36.6l13.15,3.29c33.76,8.41,57.47,38.75,57.47,73.59
		v54.56C436.33,393.68,303.57,393.68,303.57,393.68z"/>
	<path class="st5" d="M303.57,393.68l-63.22-63.22L253,298.85h-25.29l13.72-36.6l-13.15,3.29c-33.76,8.41-57.47,38.75-57.47,73.59
		v54.56H303.57z"/>
	<path class="st6" d="M378.86,265.53l-13.15-3.29l5.23,13.95l7.92,1.98c33.76,8.41,57.47,38.75,57.47,73.59v-12.64
		C436.33,304.29,412.62,273.94,378.86,265.53z"/>
	<path class="st6" d="M228.28,278.18l7.92-1.98l5.23-13.95l-13.15,3.29c-33.76,8.41-57.47,38.75-57.47,73.59v12.64
		C170.81,316.93,194.52,286.59,228.28,278.18z"/>
	<polygon class="st7" points="303.57,393.68 366.79,330.46 354.15,298.85 379.43,298.85 365.71,262.25 352.57,258.96 	"/>
	<polygon class="st7" points="303.57,393.68 240.35,330.46 253,298.85 227.71,298.85 241.43,262.25 254.58,258.96 	"/>
	<path class="st8" d="M271.82,306.38l31.75,87.3l31.75-87.3c-9.87,3.26-20.55,5.11-31.75,5.11
		C292.37,311.49,281.69,309.64,271.82,306.38z"/>
	<path class="st4" d="M339.98,255.8c-2.84-0.7-4.8-3.22-4.8-6.13v-23.52c-3.79,2.84-7.84,5.25-12.26,7.21l-3.92,1.77
		c-9.8,4.36-21.05,4.36-30.85,0l-3.92-1.77c-4.43-1.96-8.47-4.36-12.26-7.21v23.52c0,2.91-1.96,5.44-4.8,6.13l-12.58,3.16
		l17.25,47.42c9.87,3.26,20.55,5.11,31.75,5.11c11.2,0,21.88-1.86,31.75-5.11l17.25-47.42C352.57,258.96,339.98,255.8,339.98,255.8z
		"/>
	<path class="st9" d="M322.54,166.09c3.5,0,6.32-2.83,6.32-6.32v-6.32c0-3.49-2.83-6.32-6.32-6.32s-6.32,2.83-6.32,6.32v6.32
		C316.21,163.26,319.04,166.09,322.54,166.09z"/>
	<path class="st9" d="M284.61,166.09c3.5,0,6.32-2.83,6.32-6.32v-6.32c0-3.49-2.83-6.32-6.32-6.32c-3.5,0-6.32,2.83-6.32,6.32v6.32
		C278.28,163.26,281.11,166.09,284.61,166.09z"/>
	<path class="st9" d="M281.22,203.25c5.96,5.97,13.9,9.26,22.35,9.26c8.45,0,16.39-3.29,22.34-9.26l1.09-1.08
		c2.48-2.47,2.48-6.47,0.01-8.94c-2.47-2.47-6.47-2.48-8.94-0.01l-1.09,1.09c-7.16,7.17-19.65,7.18-26.82,0l-1.09-1.08
		c-2.48-2.47-6.47-2.46-8.94,0.01c-2.47,2.47-2.47,6.47,0.01,8.94L281.22,203.25L281.22,203.25z"/>
	<path class="st9" d="M380.38,259.4l-38.88-9.74v-20.48c10.43-8.6,18.08-20.1,22.13-32.94c5.31,20.61,17.45,39.07,34.77,52.03
		l15.17,11.38c1.14,0.82,2.47,1.26,3.79,1.26c0.95,0,1.96-0.19,2.84-0.7c2.15-1.01,3.48-3.22,3.48-5.63V90.23
		c0-24.4-19.85-44.25-44.25-44.25H365.4c-15.99-15.61-37.8-25.29-61.83-25.29c-48.8,0-88.51,39.7-88.51,88.51v50.57
		c0,13.97,11.32,25.29,25.29,25.29h0.7c2.34,17.39,11.25,33.06,24.59,44.13v20.48l-38.88,9.74c-36.67,9.17-62.27,41.91-62.27,79.72
		v54.56c0,3.48,2.84,6.32,6.32,6.32h265.52c3.48,0,6.32-2.84,6.32-6.32v-54.56C442.65,301.32,417.05,268.57,380.38,259.4z
		 M360.97,267.56l9.36,24.97h-16.18c-2.09,0-4.05,1.01-5.25,2.78c-1.14,1.71-1.39,3.92-0.63,5.88l11.13,27.75l-40.14,40.14
		l37.3-102.6C356.55,266.48,360.97,267.56,360.97,267.56z M379.43,58.62c17.45,0,31.61,14.16,31.61,31.61v151.72l-5.06-3.79
		c-17.57-13.15-28.95-32.75-31.93-54.3c10.37-3.1,18.02-12.71,18.02-24.09v-50.57c0-18.78-5.94-36.22-15.99-50.57
		C376.08,58.62,379.43,58.62,379.43,58.62z M366.79,172.41v-25.29c6.95,0,12.64,5.69,12.64,12.64S373.74,172.41,366.79,172.41z
		 M240.35,172.41c-6.95,0-12.64-5.69-12.64-12.64s5.69-12.64,12.64-12.64V172.41z M240.35,134.48c-4.61,0-8.91,1.33-12.64,3.54
		v-28.83c0-41.85,34.01-75.86,75.86-75.86s75.86,34.01,75.86,75.86v28.83c-3.73-2.21-8.03-3.54-12.64-3.54c0-2.97-2.09-5.5-4.93-6.2
		l-26.05-5.75c-18.46-4.11-34.83-14.67-46.15-29.78c-1.33-1.77-3.41-2.72-5.63-2.53c-2.21,0.25-4.11,1.52-5.06,3.48
		c-7.59,15.11-20.04,27.56-35.15,35.15C241.68,129.87,240.35,132.08,240.35,134.48z M253,175.57v-37.3
		c13.21-7.33,24.47-17.95,32.62-30.66c12.58,13.66,29.14,23.2,47.41,27.25l21.11,4.68v36.03c0,22.44-13.28,42.86-33.76,52.03
		l-3.98,1.71c-8.16,3.67-17.51,3.67-25.67,0l-3.98-1.71C266.27,218.44,253,198.02,253,175.57z M268.67,261.93
		c5.69-1.39,9.61-6.45,9.61-12.26v-12.2c1.14,0.57,2.21,1.14,3.35,1.64l3.98,1.77c5.69,2.53,11.82,3.79,17.95,3.79
		c6.13,0,12.26-1.26,17.95-3.79l3.98-1.77c1.14-0.51,2.21-1.07,3.35-1.64v12.2c0,5.82,3.92,10.87,9.61,12.26l5.75,1.45l-12.83,35.28
		c-17.26,8.41-38.37,8.41-55.63,0l-12.83-35.28C262.92,263.38,268.67,261.93,268.67,261.93z M246.17,267.56l4.43-1.07l37.3,102.6
		l-40.14-40.14l11.13-27.75c0.76-1.96,0.51-4.17-0.63-5.88c-1.2-1.77-3.16-2.78-5.25-2.78h-16.18
		C236.81,292.53,246.17,267.56,246.17,267.56z M234.03,387.36v-31.61c0-3.48-2.84-6.32-6.32-6.32s-6.32,2.84-6.32,6.32v31.61h-44.25
		v-48.24c0-31.99,21.68-59.74,52.66-67.45l1.52-0.38l-9.55,25.35c-0.7,1.96-0.44,4.11,0.76,5.82c1.2,1.71,3.1,2.72,5.18,2.72h15.93
		l-9.17,22.95c-0.95,2.34-0.38,4.99,1.39,6.83l52.47,52.41C288.34,387.36,234.03,387.36,234.03,387.36z M281.44,314.4
		c7.14,2.15,14.6,3.41,22.13,3.41c7.52,0,14.98-1.26,22.13-3.41l-22.13,60.82L281.44,314.4z M430.01,387.36h-44.25v-31.61
		c0-3.48-2.84-6.32-6.32-6.32s-6.32,2.84-6.32,6.32v31.61h-54.3l52.47-52.41c1.77-1.83,2.34-4.49,1.39-6.83l-9.17-22.95h15.93
		c2.09,0,3.98-1.01,5.18-2.72c1.2-1.71,1.45-3.86,0.76-5.82l-9.55-25.35l1.52,0.38c30.98,7.71,52.66,35.47,52.66,67.45
		C430.01,339.12,430.01,387.36,430.01,387.36z"/>
</g>
</svg>
