<?xml version="1.0" encoding="utf-8"?>
<!-- Generator: Adobe Illustrator 30.1.0, SVG Export Plug-In . SVG Version: 9.03 Build 0)  -->
<svg version="1.0" id="Layer_1" xmlns="http://www.w3.org/2000/svg" xmlns:xlink="http://www.w3.org/1999/xlink" x="0px" y="0px"
	 viewBox="0 0 600 400" style="enable-background:new 0 0 600 400;" xml:space="preserve">
<style type="text/css">
	.st0{fill:#D3D3D3;}
	.st1{fill:#424143;}
	.st2{fill:#FFCE04;}
	.st3{fill:#EABF1E;}
	.st4{fill:#F6937A;}
	.st5{fill:#EC2227;}
	.st6{fill:#F7A088;}
	.st7{fill:#231F20;}
</style>
<rect class="st0" width="600" height="400"/>
<g>
	<path class="st1" d="M189.46,288.97c-3.59-4.35-5.74-9.96-5.74-16.02c0-4.67,1.26-9.02,3.53-12.8
		c-12.61-1.32-22.45-12.05-22.45-25.04c0-5.93,2.08-11.41,5.55-15.77c-3.47-4.29-5.55-9.78-5.55-15.77
		c0-11.04,7.06-20.37,16.9-23.78c-2.71-4.04-4.29-8.89-4.29-14.06c0-9.21,4.92-17.22,12.23-21.57c-3.66-4.41-5.93-10.09-5.93-16.27
		c0-12.05,8.39-22.07,19.68-24.6c-0.5-2.27-0.76-4.54-0.76-6.94c0-17.41,14.13-31.53,31.53-31.53c0.19,0,0.44,0,0.63,0.06
		c2.9-14.44,15.64-25.29,30.9-25.29c5.93,0,11.41,1.64,16.14,4.48c5.23-10.15,15.83-17.09,28-17.09c13.37,0,24.79,8.32,29.39,20.06
		c2.71-0.76,5.55-1.14,8.45-1.14c15.45,0,28.32,11.1,30.97,25.79c14.69,2.65,25.79,15.51,25.79,30.97c0,2.4-0.25,4.67-0.76,6.94
		c11.29,2.52,19.68,12.55,19.68,24.6c0,4.35-1.14,8.45-3.03,11.98c5.74,4.6,9.33,11.67,9.33,19.55c0,5.23-1.64,10.15-4.41,14.19
		c6.56,5.74,10.72,14.19,10.72,23.65c0,6.12-1.77,11.86-4.86,16.71c3.09,4.16,4.86,9.27,4.86,14.82c0,11.04-7.06,20.37-16.9,23.78
		c2.71,4.04,4.29,8.89,4.29,14.06c0,6.05-2.14,11.67-5.74,16.02H189.46z"/>
	<path class="st2" d="M435.98,338.35c0-34.72-23.64-65-57.33-73.42l-4.98-1.25c-11.29,27.62-38.41,47.11-70.13,47.11
		s-58.84-19.49-70.13-47.11l-4.98,1.25c-33.69,8.43-57.33,38.69-57.33,73.42v54.43h264.88
		C435.98,392.78,435.98,338.35,435.98,338.35z"/>
	<path class="st3" d="M378.65,264.93l-4.98-1.25c-11.29,27.62-38.41,47.11-70.13,47.11s-58.84-19.49-70.13-47.11l-4.98,1.25
		c-33.69,8.43-57.33,38.69-57.33,73.42v12.61c0-34.72,23.64-65,57.33-73.42l4.98-1.25c11.29,27.62,38.41,47.11,70.13,47.11
		s58.84-19.49,70.13-47.11l4.98,1.25c33.69,8.43,57.33,38.69,57.33,73.42v-12.61C435.98,303.63,412.34,273.36,378.65,264.93z"/>
	<path class="st4" d="M348.76,257.44l-8.89-2.21c-2.84-0.69-4.79-3.22-4.79-6.12v-23.46c-3.78,2.84-7.82,5.23-12.23,7.19l-3.91,1.77
		c-9.78,4.41-21,4.41-30.78,0l-3.91-1.77c-4.41-1.96-8.45-4.35-12.23-7.19v23.46c0,2.9-1.96,5.42-4.79,6.12l-8.89,2.21
		c8.2,16.65,25.35,28.13,45.22,28.13S340.56,274.09,348.76,257.44z"/>
	<path class="st5" d="M303.54,310.79c31.72,0,58.84-19.49,70.13-47.11l-24.92-6.23c-8.2,16.64-25.35,28.11-45.21,28.11
		s-37.01-11.47-45.21-28.11l-24.92,6.23C244.7,291.31,271.82,310.79,303.54,310.79z"/>
	<path class="st6" d="M352.37,133.62c-1.49,0.38-3.07,0.59-4.69,0.59c-9.02,0-16.52-6.24-18.42-14.63
		c-1.96,1.32-4.29,2.02-6.81,2.02c-5.74,0-10.6-3.85-12.11-9.14c-4.67,5.61-11.6,9.14-19.42,9.14c-4.67,0-9.08-1.32-12.87-3.53
		c-1.26,9.14-9.14,16.14-18.67,16.14c-1.62,0-3.19-0.2-4.69-0.59c-3.99-1.02-7.93,1.66-7.93,5.77v35.81
		c0,24.91,14.69,47.49,37.46,57.64l3.91,1.77c9.78,4.42,20.99,4.42,30.78,0l3.91-1.77c22.77-10.15,37.46-32.73,37.46-57.64v-35.81
		C360.3,135.27,356.36,132.6,352.37,133.62z"/>
	<path class="st7" d="M322.46,146.82c-3.48,0-6.31,2.83-6.31,6.31v6.31c0,3.48,2.83,6.31,6.31,6.31s6.31-2.83,6.31-6.31v-6.31
		C328.77,149.65,325.94,146.82,322.46,146.82z"/>
	<path class="st7" d="M284.62,165.74c3.48,0,6.31-2.83,6.31-6.31v-6.31c0-3.48-2.83-6.31-6.31-6.31s-6.31,2.83-6.31,6.31v6.31
		C278.32,162.92,281.14,165.74,284.62,165.74z"/>
	<path class="st7" d="M318,192.82l-1.08,1.08c-7.38,7.38-19.38,7.38-26.76,0l-1.08-1.08c-2.47-2.47-6.45-2.47-8.92,0
		s-2.47,6.45,0,8.92l1.08,1.08c6.15,6.15,14.22,9.22,22.3,9.22s16.15-3.07,22.3-9.22l1.08-1.08c2.47-2.47,2.47-6.45,0-8.92
		S320.48,190.35,318,192.82L318,192.82z"/>
	<path class="st7" d="M442.29,235.11c0-5.36-1.32-10.47-3.85-15.01c2.52-5.11,3.85-10.78,3.85-16.52c0-9.14-3.28-17.91-9.21-24.72
		c1.89-4.1,2.9-8.51,2.9-13.12c0-7.88-2.9-15.39-8.07-21.06c1.14-3.41,1.77-6.94,1.77-10.47c0-12.87-7.57-24.09-18.98-28.95
		c0.06-0.88,0.06-1.7,0.06-2.59c0-16.9-11.1-31.47-26.87-36.2c-4.73-15.77-19.3-26.87-36.2-26.87c-1.64,0-3.28,0.13-4.86,0.32
		c-6.69-11.86-19.11-19.24-32.98-19.24c-12.11,0-23.27,5.74-30.33,15.26c-4.35-1.77-9.08-2.65-13.81-2.65
		c-16.27,0-30.59,10.47-35.76,25.48c-18.86,2.08-33.61,18.16-33.61,37.59c0,0.88,0,1.7,0.06,2.59
		c-11.41,4.86-18.98,16.08-18.98,28.95c0,5.17,1.32,10.28,3.72,14.82c-6.31,5.87-10.03,14.25-10.03,23.02
		c0,3.85,0.69,7.63,2.08,11.23c-9.02,5.68-14.69,15.64-14.69,26.61c0,5.55,1.51,11.04,4.23,15.77c-2.71,4.79-4.23,10.28-4.23,15.77
		c0,13.31,8.2,24.85,20.06,29.39c-0.76,2.71-1.14,5.55-1.14,8.45c0,5.55,1.45,10.91,4.16,15.7c-10.6,13.87-16.78,31.15-16.78,49.7
		v54.43c0,3.47,2.84,6.31,6.31,6.31h264.88c3.47,0,6.31-2.84,6.31-6.31v-54.43c0-18.54-6.18-35.82-16.78-49.7
		c2.71-4.79,4.16-10.15,4.16-15.7c0-3.85-0.69-7.63-2.08-11.23C436.61,256.05,442.29,246.09,442.29,235.11z M429.67,338.35v48.12
		H177.41v-48.12c0-31.85,21.57-59.47,52.41-67.29c13.75,28.13,42.07,46.04,73.72,46.04c31.66,0,59.98-17.91,73.72-46.04
		C408.11,278.88,429.67,306.5,429.67,338.35z M338.29,261.35l0.57,0.13c-8.26,11.1-21.13,17.78-35.32,17.78s-27.06-6.69-35.32-17.78
		l0.57-0.13c5.61-1.39,9.52-6.43,9.52-12.23v-12.17c1.07,0.57,2.21,1.14,3.34,1.64l3.91,1.77c5.68,2.59,11.86,3.91,17.97,3.91
		c6.12,0,12.3-1.32,17.97-3.91l3.91-1.77c1.14-0.5,2.21-1.07,3.34-1.64v12.17C328.77,254.92,332.68,259.96,338.29,261.35z
		 M320.25,227.1l-3.91,1.77c-8.14,3.66-17.47,3.66-25.6,0l-3.91-1.77c-20.5-9.14-33.74-29.52-33.74-51.9v-35.82l0.06,0.38
		c2.02,0.5,4.16,0.76,6.24,0.76c9.71,0,18.42-5.61,22.51-13.94c9.27,2.77,19.36,1.01,27.06-4.35c4.23,4.29,10.66,6.43,16.71,5.42
		c4.29,7.82,12.61,12.87,22.01,12.87c2.08,0,4.23-0.25,6.31-1.14v35.82C354,197.59,340.75,217.96,320.25,227.1z M303.54,291.87
		c19.99,0,38.03-10.34,48.25-27.18l12.87,3.22c-12.05,22.45-35.25,36.58-61.11,36.58c-25.86,0-49.07-14.13-61.11-36.58l12.87-3.22
		C265.51,281.53,283.55,291.87,303.54,291.87z M426.08,224.08c2.33,3.15,3.59,7,3.59,11.04c0,8.01-5.11,15.2-12.68,17.85
		c-1.83,0.63-3.28,2.08-3.91,3.91c-0.63,1.89-0.32,3.91,0.76,5.55c2.08,3.09,3.22,6.75,3.22,10.53c0,1.83-0.32,3.66-0.82,5.42
		c-9.9-9.21-22.2-16.08-36.07-19.55l-38.79-9.71v-20.43c15.7-13.05,25.23-32.54,25.23-53.48v-35.82c0-3.78-1.7-7.32-4.73-9.65
		c-3.09-2.4-7.13-3.22-11.04-2.21c-6.75,1.7-13.87-2.59-15.39-9.33c-0.5-2.02-1.89-3.72-3.85-4.48c-1.96-0.76-4.16-0.5-5.87,0.63
		c-0.95,0.63-2.02,0.95-3.28,0.95c-2.77,0-5.3-1.89-6.05-4.54c-0.63-2.27-2.46-3.97-4.73-4.48c-2.33-0.5-4.67,0.38-6.18,2.14
		c-5.8,6.94-16.21,8.89-24.28,4.23c-1.83-1.07-4.04-1.2-5.93-0.25c-1.89,0.95-3.15,2.71-3.47,4.79
		c-0.82,6.12-6.18,10.72-12.42,10.72c-1.07,0-2.14-0.13-3.09-0.38c-3.97-1.01-8.01-0.19-11.1,2.21c-3.03,2.33-4.73,5.87-4.73,9.65
		v35.82c0,20.94,9.52,40.49,25.23,53.48v20.43l-38.79,9.71c-13.87,3.47-26.17,10.34-36.07,19.55c-0.5-1.77-0.82-3.59-0.82-5.42
		c0-3.41,0.88-6.62,2.65-9.59c1.07-1.83,1.2-4.1,0.25-6.05c-1.01-1.89-2.9-3.22-5.05-3.41c-9.52-1.01-16.78-9.08-16.78-18.79
		c0-4.29,1.45-8.39,4.16-11.86c1.83-2.27,1.83-5.55,0-7.88c-2.71-3.34-4.16-7.44-4.16-11.79c0-8.01,5.11-15.2,12.68-17.85
		c1.83-0.63,3.28-2.08,3.91-3.91c0.63-1.89,0.32-3.91-0.76-5.55c-2.08-3.09-3.22-6.75-3.22-10.53c0-6.69,3.41-12.74,9.14-16.14
		c1.58-0.95,2.71-2.52,3.03-4.35c0.32-1.83-0.19-3.66-1.39-5.11c-2.9-3.47-4.48-7.82-4.48-12.23c0-8.89,6.05-16.52,14.76-18.42
		c3.41-0.76,5.55-4.16,4.79-7.57c-0.44-1.83-0.63-3.66-0.63-5.55c0-13.81,11.16-25.1,24.97-25.23c1.45,0.19,2.84-0.06,4.1-0.82
		c1.51-0.88,2.59-2.4,2.96-4.16c2.33-11.73,12.74-20.24,24.72-20.24c4.6,0,8.96,1.2,12.93,3.59c1.45,0.88,3.28,1.14,4.92,0.63
		c1.7-0.44,3.09-1.64,3.91-3.15c4.35-8.45,12.93-13.69,22.39-13.69c10.47,0,19.68,6.31,23.52,16.08c1.2,2.96,4.48,4.6,7.57,3.72
		c2.14-0.57,4.41-0.88,6.75-0.88c12.17,0,22.58,8.64,24.79,20.62c0.44,2.59,2.46,4.6,5.05,5.05c11.98,2.21,20.62,12.61,20.62,24.79
		c0,1.89-0.19,3.72-0.63,5.55c-0.76,3.41,1.39,6.81,4.79,7.57c8.7,1.89,14.76,9.52,14.76,18.42c0,3.09-0.76,6.24-2.27,9.02
		c-1.45,2.65-0.76,5.99,1.58,7.88c4.48,3.53,7,8.89,7,14.63c0,3.78-1.14,7.5-3.28,10.6c-1.83,2.65-1.39,6.24,1.01,8.32
		c5.42,4.79,8.58,11.67,8.58,18.92c0,4.73-1.32,9.33-3.85,13.31C424.38,219.1,424.5,221.93,426.08,224.08z"/>
</g>
</svg>
