<?xml version="1.0" encoding="utf-8"?>
<!-- Generator: Adobe Illustrator 30.1.0, SVG Export Plug-In . SVG Version: 9.03 Build 0)  -->
<svg version="1.0" id="Layer_1" xmlns="http://www.w3.org/2000/svg" xmlns:xlink="http://www.w3.org/1999/xlink" x="0px" y="0px"
	 viewBox="0 0 600 400" style="enable-background:new 0 0 600 400;" xml:space="preserve">
<style type="text/css">
	.st0{fill:#D3D3D3;}
	.st1{fill:#F9B6A5;}
	.st2{fill:#A97D51;}
	.st3{fill:#8B5F3D;}
	.st4{fill:#595A5C;}
	.st5{fill:#6E6F72;}
	.st6{fill:#FFCE04;}
	.st7{fill:#EABF1E;}
	.st8{fill:#FABAAB;}
	.st9{fill:#231F20;}
</style>
<rect class="st0" width="600" height="400"/>
<g>
	<rect x="272.27" y="216.67" class="st1" width="63.22" height="82.18"/>
	<path class="st2" d="M386.06,267.62c-2.25-0.8-4.54-1.51-6.89-2.1l-18.4-4.6l-25.29-6.32l-31.61,37.93l-31.61-37.93l-25.29,6.32
		l-18.4,4.6c-2.35,0.59-4.64,1.31-6.89,2.1c-30.05,10.61-50.57,39.11-50.57,71.5v54.56h265.52v-54.56
		C436.64,306.73,416.12,278.23,386.06,267.62z"/>
	<path class="st3" d="M246.98,260.92l-18.4,4.6c-2.35,0.59-4.64,1.31-6.89,2.1c-30.05,10.61-50.57,39.11-50.57,71.5v12.64
		c0-32.39,20.52-60.89,50.57-71.5c2.25-0.8,4.54-1.51,6.89-2.1l18.4-4.6l34.01-8.5l-8.72-10.46L246.98,260.92z"/>
	<path class="st3" d="M386.06,267.62c-2.25-0.8-4.54-1.51-6.89-2.1l-18.4-4.6l-25.29-6.32l-8.72,10.46l34.01,8.5l18.4,4.6
		c2.35,0.59,4.64,1.31,6.89,2.1c30.05,10.61,50.57,39.11,50.57,71.5v-12.64C436.64,306.73,416.12,278.23,386.06,267.62z"/>
	<circle class="st4" cx="386.06" cy="159.77" r="44.25"/>
	<circle class="st4" cx="221.69" cy="159.77" r="44.25"/>
	<circle class="st5" cx="303.88" cy="109.19" r="82.18"/>
	<path class="st6" d="M379.17,265.52l-18.4-4.6v50.57c0,6.99-5.66,12.64-12.64,12.64h-88.51c-6.99,0-12.64-5.66-12.64-12.64v-50.57
		l-18.4,4.6c-2.35,0.59-4.64,1.31-6.89,2.1v126.06h164.37V267.62C383.81,266.82,381.52,266.11,379.17,265.52z"/>
	<path class="st7" d="M246.98,324.14c0,6.99,5.66,12.64,12.64,12.64h88.51c6.99,0,12.64-5.66,12.64-12.64v-12.64
		c0,6.99-5.66,12.64-12.64,12.64h-88.51c-6.99,0-12.64-5.66-12.64-12.64V324.14z"/>
	<path class="st7" d="M246.98,273.56v-12.64l-18.4,4.6c-2.35,0.59-4.64,1.31-6.89,2.1v12.64c2.25-0.8,4.54-1.51,6.89-2.1
		L246.98,273.56z"/>
	<path class="st7" d="M379.17,265.52l-18.4-4.6v12.64l18.4,4.6c2.35,0.59,4.64,1.31,6.89,2.1v-12.64
		C383.81,266.82,381.52,266.11,379.17,265.52z"/>
	<path class="st8" d="M341.81,121.84h-18.97l-18.97-12.64l-18.97,12.64h-18.97c-10.48,0-18.97,8.49-18.97,18.97v34.78
		c0,24.98,14.71,47.62,37.55,57.77l3.95,1.76c9.81,4.36,21,4.36,30.81,0l3.95-1.76c22.83-10.15,37.55-32.79,37.55-57.77V140.8
		c0-10.48-8.49-18.97-18.97-18.97H341.81z"/>
	<path class="st1" d="M367.1,178.74c10.48,0,18.97-8.49,18.97-18.97c0-10.48-8.49-18.97-18.97-18.97h-6.32v37.93H367.1z"/>
	<path class="st1" d="M240.66,140.8c-10.48,0-18.97,8.49-18.97,18.97c0,10.48,8.49,18.97,18.97,18.97h6.32V140.8H240.66z"/>
	<path class="st9" d="M322.84,166.09c3.5,0,6.32-2.83,6.32-6.32v-6.32c0-3.49-2.83-6.32-6.32-6.32s-6.32,2.83-6.32,6.32v6.32
		C316.52,163.26,319.35,166.09,322.84,166.09z"/>
	<path class="st9" d="M284.91,166.09c3.5,0,6.32-2.83,6.32-6.32v-6.32c0-3.49-2.83-6.32-6.32-6.32s-6.32,2.83-6.32,6.32v6.32
		C278.59,163.26,281.42,166.09,284.91,166.09z"/>
	<path class="st9" d="M281.53,203.25c5.96,5.97,13.9,9.26,22.35,9.26c8.45,0,16.39-3.29,22.34-9.26l1.09-1.08
		c2.48-2.47,2.48-6.47,0.01-8.94c-2.47-2.47-6.47-2.48-8.94-0.01l-1.09,1.09c-7.16,7.17-19.65,7.18-26.82,0l-1.09-1.08
		c-2.48-2.47-6.47-2.46-8.94,0.01s-2.47,6.47,0.01,8.94L281.53,203.25L281.53,203.25z"/>
	<path class="st9" d="M380.69,259.4l-38.88-9.74v-20.48c8.34-6.89,14.92-15.61,19.28-25.41c7.52,4.3,16.12,6.57,24.97,6.57
		c27.88,0,50.57-22.7,50.57-50.57c0-25.73-19.34-47.03-44.25-50.13v-0.44c0-48.8-39.7-88.51-88.51-88.51s-88.51,39.7-88.51,88.51
		v0.44c-24.91,3.1-44.25,24.4-44.25,50.13c0,27.88,22.7,50.57,50.57,50.57c8.85,0,17.45-2.28,24.97-6.57
		c4.36,9.8,10.94,18.52,19.28,25.41v20.48l-38.88,9.74c-36.67,9.17-62.27,41.91-62.27,79.72v54.56c0,3.48,2.84,6.32,6.32,6.32
		h265.52c3.48,0,6.32-2.84,6.32-6.32v-54.56C442.96,301.32,417.35,268.57,380.69,259.4z M215.37,387.36h-37.93v-48.24
		c0-26.62,15.05-50.26,37.93-61.89V387.36z M385.68,142.76c2.72-6.64,4.61-13.47,5.63-20.55c18.46,2.59,32.68,18.4,32.68,37.55
		c0,20.93-17.01,37.93-37.93,37.93c-7.59,0-14.67-2.28-20.8-6.39c0.51-2.09,0.89-4.17,1.14-6.26h0.7
		c13.97,0,25.29-11.32,25.29-25.29C392.38,153.19,389.79,147.25,385.68,142.76z M367.1,172.41v-25.29c6.95,0,12.64,5.69,12.64,12.64
		C379.74,166.72,374.05,172.41,367.1,172.41z M221.69,197.7c-20.93,0-37.93-17.01-37.93-37.93c0-19.09,14.16-34.83,32.68-37.49
		c1.01,7.02,2.91,13.84,5.63,20.48c-4.11,4.49-6.7,10.43-6.7,17.01c0,13.97,11.32,25.29,25.29,25.29h0.7
		c0.25,2.09,0.63,4.17,1.14,6.26C236.36,195.42,229.28,197.7,221.69,197.7z M228.02,159.77c0-6.95,5.69-12.64,12.64-12.64v25.29
		C233.7,172.41,228.02,166.72,228.02,159.77z M241.54,134.48h-0.89c-2.72,0-5.31,0.57-7.78,1.33c-3.16-8.47-4.87-17.39-4.87-26.62
		c0-41.85,34.01-75.86,75.86-75.86s75.86,34.01,75.86,75.86c0,9.23-1.71,18.14-4.87,26.62c-2.47-0.76-5.06-1.33-7.78-1.33h-0.89
		c-2.84-10.87-12.64-18.97-24.4-18.97h-17.07l-17.39-11.57c-2.09-1.45-4.87-1.45-6.95,0l-17.39,11.57h-17.07
		C254.19,115.52,244.39,123.61,241.54,134.48z M253.3,175.57V140.8c0-6.95,5.69-12.64,12.64-12.64h18.97c1.26,0,2.47-0.38,3.48-1.07
		l15.49-10.3l15.49,10.3c1.01,0.7,2.21,1.07,3.48,1.07h18.97c6.95,0,12.64,5.69,12.64,12.64v34.77c0,22.44-13.28,42.86-33.76,52.03
		l-3.98,1.71c-8.16,3.67-17.51,3.67-25.67,0l-3.98-1.71C266.58,218.44,253.3,198.02,253.3,175.57z M329.16,237.47v14.86
		l-25.29,30.34l-25.29-30.34v-14.86c1.14,0.57,2.21,1.14,3.35,1.64l3.98,1.77c5.69,2.53,11.82,3.79,17.95,3.79
		c6.13,0,12.26-1.26,17.95-3.79l3.98-1.77C326.95,238.6,328.03,238.03,329.16,237.47z M253.3,265.85l16.63-4.17l29.08,34.9
		c1.2,1.45,2.97,2.28,4.87,2.28c1.9,0,3.67-0.82,4.87-2.28l29.08-34.9l16.63,4.17v45.64c0,3.48-2.84,6.32-6.32,6.32h-88.51
		c-3.48,0-6.32-2.84-6.32-6.32V265.85z M379.74,387.36H228.02V272.3c0.7-0.25,1.39-0.44,2.09-0.63l10.56-2.66v42.48
		c0,10.43,8.53,18.97,18.97,18.97h88.51c10.43,0,18.97-8.53,18.97-18.97v-42.48l10.56,2.66c0.7,0.19,1.39,0.38,2.09,0.63V387.36z
		 M430.31,387.36h-37.93V277.23c22.89,11.63,37.93,35.28,37.93,61.89C430.31,339.12,430.31,387.36,430.31,387.36z"/>
</g>
</svg>
