<?xml version="1.0" encoding="utf-8"?>
<!-- Generator: Adobe Illustrator 30.1.0, SVG Export Plug-In . SVG Version: 9.03 Build 0)  -->
<svg version="1.0" id="Layer_1" xmlns="http://www.w3.org/2000/svg" xmlns:xlink="http://www.w3.org/1999/xlink" x="0px" y="0px"
	 viewBox="0 0 600 400" style="enable-background:new 0 0 600 400;" xml:space="preserve">
<style type="text/css">
	.st0{fill:#D3D3D3;}
	.st1{fill:#818285;}
	.st2{fill:#F9B6A5;}
	.st3{fill:#E6E7E7;}
	.st4{fill:#81684A;}
	.st5{fill:#705B41;}
	.st6{fill:#D2D3D4;}
	.st7{fill:#ED8823;}
	.st8{fill:#FABAAB;}
	.st9{fill:#231F20;}
</style>
<rect class="st0" width="600" height="400"/>
<g>
	<path class="st1" d="M228.47,131.26l-5.7-47.67c-3.6-30.1,19.91-56.57,50.22-56.57h37.85c13.97,0,25.29,11.32,25.29,25.29
		c0-3.48,1.39-6.64,3.73-8.91c2.28-2.34,5.44-3.73,8.91-3.73h0.82c22.98,0,40.68,20.27,37.58,43.04l-6.6,48.56
		C380.57,131.26,228.47,131.26,228.47,131.26z"/>
	<rect x="272.91" y="191.38" class="st2" width="63.22" height="88.51"/>
	<path class="st2" d="M361.42,162.93v-34.77h9.86c10.68,0,18.27,10.49,14.86,20.61c-1.71,5.18-4.99,9.48-9.17,12.52
		c-4.24,3.03-9.36,4.8-14.79,4.8h-0.89C361.42,165.02,361.42,164.01,361.42,162.93z"/>
	<path class="st2" d="M247.75,166.09h-0.89c-5.44,0-10.56-1.77-14.79-4.8c-4.17-3.03-7.46-7.33-9.17-12.52
		c-3.41-10.11,4.17-20.61,14.86-20.61h9.86v34.77C247.62,164.01,247.62,165.02,247.75,166.09z"/>
	<path class="st3" d="M399.35,262.19v131.49h50.57v-60.02C449.92,300.99,429.11,272.7,399.35,262.19z"/>
	<path class="st4" d="M384.09,258.46l-28.99-3.86l-18.97,44.25l-13.02-13.02l-18.59,13.02l-18.59-13.02l-13.02,13.02l-18.97-44.25
		l-28.99,3.86c-5.3,0.71-10.39,2-15.26,3.72v131.49h189.66V262.18C394.47,260.46,389.39,259.17,384.09,258.46z"/>
	<path class="st5" d="M384.09,258.46l-28.99-3.86l-5.2,12.13l34.19,4.37c5.3,0.71,10.39,2,15.26,3.72v-12.64
		C394.47,260.46,389.39,259.17,384.09,258.46z"/>
	<path class="st5" d="M224.95,258.46l28.99-3.86l5.2,12.13l-34.19,4.37c-5.3,0.71-10.39,2-15.26,3.72v-12.64
		C214.57,260.46,219.65,259.17,224.95,258.46z"/>
	<polygon class="st6" points="304.52,298.85 323.11,285.83 304.52,267.24 285.93,285.83 	"/>
	<path class="st3" d="M159.12,333.66v60.02h50.57V262.19C179.93,272.7,159.12,300.99,159.12,333.66z"/>
	<path class="st6" d="M399.35,262.19v12.64c29.76,10.51,50.57,38.8,50.57,71.47v-12.64C449.92,300.99,429.11,272.7,399.35,262.19z"
		/>
	<path class="st6" d="M159.12,333.66v12.64c0-32.67,20.81-60.96,50.57-71.47v-12.64C179.93,272.7,159.12,300.99,159.12,333.66z"/>
	<polygon class="st7" points="336.13,298.85 355.1,254.6 342.45,241.95 336.13,246.17 336.13,246.19 336.13,246.17 304.52,267.24 
		323.11,285.83 	"/>
	<polygon class="st7" points="285.93,285.83 304.52,267.24 272.91,246.17 272.91,246.19 272.91,246.17 266.59,241.95 253.95,254.6 
		272.91,298.85 	"/>
	<path class="st8" d="M359.25,102.87c-6.71,0-13.14-2.66-17.88-7.41l-5.23-5.23l-6.74,2.69c-16.43,6.57-33.96,9.95-51.66,9.95
		h-17.47c-6.99,0-12.64,5.66-12.64,12.64v47.42c0,24.98,14.71,47.62,37.55,57.77l3.95,1.76c9.81,4.36,21,4.36,30.81,0l3.95-1.76
		c22.83-10.15,37.55-32.79,37.55-57.77v-60.06h-2.17L359.25,102.87z"/>
	<path class="st9" d="M384.94,252.19l-26.87-3.6l-11.13-11.13c-1.26-1.2-2.84-1.77-4.49-1.77v-19.16
		c13.47-11.13,22.38-26.99,24.66-44.51c4.87-0.76,9.48-2.66,13.59-5.63c5.44-3.98,9.36-9.36,11.44-15.61
		c2.28-6.76,1.2-13.97-2.97-19.79c-0.57-0.76-1.26-1.39-1.9-2.02l6.13-45.45c1.77-12.64-2.09-25.41-10.49-35.02
		c-8.41-9.67-20.55-15.17-33.32-15.17h-0.82c-3.86,0-7.52,1.14-10.56,3.16c-5.44-9.42-15.68-15.8-27.37-15.8h-37.87
		c-16.25,0-31.74,6.95-42.55,19.16c-10.75,12.14-15.87,28.39-13.91,44.51l5.31,44.57c-0.63,0.7-1.39,1.33-1.96,2.09
		c-4.17,5.82-5.25,13.02-2.97,19.72c2.09,6.32,6.01,11.7,11.51,15.68c4.05,2.97,8.66,4.87,13.53,5.63
		c2.28,17.51,11.19,33.38,24.66,44.51v19.16c-1.64,0-3.22,0.57-4.49,1.77l-11.13,11.13l-26.87,3.6
		c-40.65,5.44-71.31,40.46-71.31,81.49v59.99c0,3.48,2.84,6.32,6.32,6.32h290.81c3.48,0,6.32-2.84,6.32-6.32v-59.99
		C456.25,292.65,425.58,257.63,384.94,252.19z M347.57,256.05l-13.59,31.74l-19.53-19.53l27.18-18.14
		C341.63,250.11,347.57,256.05,347.57,256.05z M304.52,259.65l-25.29-16.88v-17.95c1.14,0.57,2.21,1.14,3.35,1.64l3.98,1.77
		c5.69,2.53,11.82,3.79,17.95,3.79s12.26-1.26,17.95-3.79l3.98-1.77c1.14-0.51,2.21-1.07,3.35-1.64v17.95
		C329.81,242.78,304.52,259.65,304.52,259.65z M313.31,284.94l-8.79,6.2l-8.79-6.2l8.79-8.79L313.31,284.94z M380.13,146.81
		c-1.26,3.73-3.6,7.02-6.83,9.36c-1.71,1.2-3.6,2.15-5.56,2.72v-24.4h3.54c3.03,0,5.82,1.45,7.59,3.92
		C380.64,140.87,381.08,143.9,380.13,146.81z M241.3,158.88c-1.96-0.57-3.79-1.52-5.5-2.72c-3.29-2.34-5.63-5.63-6.89-9.42
		c-0.95-2.84-0.51-5.88,1.26-8.34c1.77-2.47,4.55-3.92,7.59-3.92h3.54V158.88z M241.3,115.52v6.32h-3.54
		c-1.33,0-2.66,0.25-3.98,0.51l-4.74-39.51c-1.45-12.52,2.47-25.16,10.87-34.64c8.34-9.42,20.42-14.86,33.06-14.86h37.87
		c10.43,0,18.97,8.53,18.97,18.97c0,3.48,2.84,6.32,6.32,6.32s6.32-2.84,6.32-6.32c0-1.71,0.63-3.22,1.96-4.49
		c1.14-1.2,2.66-1.83,4.36-1.83h0.82c9.1,0,17.83,3.92,23.83,10.81c5.94,6.89,8.72,15.99,7.46,25.03l-5.5,40.52
		c-1.33-0.25-2.72-0.51-4.11-0.51h-3.54v-18.97c0-3.48-2.84-6.32-6.32-6.32h-2.15c-4.99,0-9.93-2.02-13.4-5.56l-5.25-5.25
		c-1.83-1.77-4.49-2.34-6.83-1.39l-6.76,2.72c-15.74,6.26-32.3,9.48-49.31,9.48h-17.45C249.84,96.55,241.3,105.09,241.3,115.52z
		 M253.95,162.93v-47.41c0-3.48,2.84-6.32,6.32-6.32h17.45c18.59,0,36.79-3.48,53.99-10.43l2.91-1.14l2.28,2.34
		c4.99,4.93,11.32,8.09,18.21,8.98v53.99c0,22.44-13.28,42.86-33.76,52.03l-3.98,1.71c-8.16,3.67-17.51,3.67-25.67,0l-3.98-1.71
		C267.22,205.79,253.95,185.37,253.95,162.93z M267.41,250.11l27.18,18.14l-19.53,19.53l-13.59-31.74L267.41,250.11z M203.37,387.36
		h-37.93v-53.67c0-26.68,15.3-50.26,37.93-61.89C203.37,271.79,203.37,387.36,203.37,387.36z M393.03,387.36H216.02V266.86
		c3.16-0.95,6.45-1.71,9.8-2.15l24.21-3.22l17.07,39.83c0.82,1.96,2.53,3.35,4.61,3.73c0.38,0.06,0.82,0.13,1.2,0.13
		c1.64,0,3.29-0.63,4.49-1.83l9.23-9.29l14.29,9.99c1.07,0.76,2.34,1.14,3.6,1.14c1.26,0,2.53-0.38,3.6-1.14l14.29-9.99l9.23,9.29
		c1.2,1.2,2.84,1.83,4.49,1.83c0.38,0,0.82-0.06,1.2-0.13c2.09-0.38,3.79-1.77,4.61-3.73l17.07-39.83l24.21,3.22
		c3.35,0.44,6.64,1.2,9.8,2.15C393.03,266.86,393.03,387.36,393.03,387.36z M443.6,387.36h-37.93V271.79
		c22.63,11.63,37.93,35.21,37.93,61.89C443.6,333.68,443.6,387.36,443.6,387.36z"/>
	<path class="st9" d="M272.91,134.48h18.97c3.49,0,6.32-2.83,6.32-6.32c0-3.49-2.83-6.32-6.32-6.32h-18.97
		c-3.49,0-6.32,2.83-6.32,6.32C266.59,131.65,269.42,134.48,272.91,134.48z"/>
	<path class="st9" d="M317.16,134.48h18.97c3.49,0,6.32-2.83,6.32-6.32c0-3.49-2.83-6.32-6.32-6.32h-18.97
		c-3.49,0-6.32,2.83-6.32,6.32C310.84,131.65,313.68,134.48,317.16,134.48z"/>
	<path class="st9" d="M317.16,140.8v6.32c0,3.49,2.83,6.32,6.32,6.32s6.32-2.83,6.32-6.32v-6.32c0-3.49-2.83-6.32-6.32-6.32
		S317.16,137.31,317.16,140.8z"/>
	<path class="st9" d="M279.23,140.8v6.32c0,3.49,2.83,6.32,6.32,6.32s6.32-2.83,6.32-6.32v-6.32c0-3.49-2.83-6.32-6.32-6.32
		S279.23,137.31,279.23,140.8z"/>
	<path class="st9" d="M290.03,180.59c-2.47-2.47-6.47-2.47-8.94,0c-2.47,2.47-2.47,6.47,0,8.94l1.08,1.08
		c6.16,6.16,14.26,9.24,22.35,9.24s16.19-3.08,22.35-9.24l1.08-1.08c2.47-2.47,2.47-6.47,0-8.94c-2.47-2.47-6.47-2.47-8.94,0
		l-1.08,1.08c-7.4,7.4-19.43,7.4-26.82,0L290.03,180.59L290.03,180.59z"/>
</g>
</svg>
