<?xml version="1.0" encoding="utf-8"?>
<!-- Generator: Adobe Illustrator 30.1.0, SVG Export Plug-In . SVG Version: 9.03 Build 0)  -->
<svg version="1.0" id="Layer_1" xmlns="http://www.w3.org/2000/svg" xmlns:xlink="http://www.w3.org/1999/xlink" x="0px" y="0px"
	 viewBox="0 0 600 400" style="enable-background:new 0 0 600 400;" xml:space="preserve">
<style type="text/css">
	.st0{fill:#B9E0EF;}
	.st1{fill:#539843;}
	.st2{fill:#5FAD46;}
	.st3{fill:#96CB5D;}
	.st4{fill:#87C542;}
	.st5{fill:#509141;}
	.st6{fill:#467F3C;}
	.st7{fill:#6C9DD3;}
	.st8{fill:#4D7FC1;}
	.st9{fill:#231F20;}
</style>
<rect x="0.77" class="st0" width="602.18" height="400"/>
<path class="st1" d="M218.39,263.7c2.29-0.13,4.59-0.13,6.88-0.13c32.11,0,64.11,5.39,94.8,16.02c5.56-2.36,11.13-4.71,16.8-6.78
	c-35.71-14.88-73.59-22.35-111.6-22.35c-2.29,0-4.59,0-6.88,0.13l-52.03,5.96c-20.18,4.13-139.91,27.48-159.04,35.94v13.11
	c19.13-8.45,138.86-31.81,159.04-35.94C166.36,269.66,218.39,263.7,218.39,263.7z"/>
<path class="st2" d="M468.46,249.28c-2.62,0-5.24,0-7.86,0.07l-74.84,9.04c-16.58,3.67-32.9,8.52-48.89,14.42
	c-14.68,5.37-29.03,11.73-42.99,18.94l-90.24,46.66c11.86-2.29,23.81-3.99,35.78-5.39l54.46-28.16
	c13.96-7.21,28.31-13.56,42.99-18.94c15.99-5.9,32.31-10.75,48.89-14.42l74.84-9.04c2.62-0.07,5.24-0.07,7.86-0.07l127.94,4v-13.11
	C596.4,253.28,468.46,249.28,468.46,249.28z"/>
<path class="st3" d="M126.98,177.2c-10.86,0-19.66,28.46-19.66,39.32s8.8,19.66,19.66,19.66s19.66-8.8,19.66-19.66
	S137.84,177.2,126.98,177.2z"/>
<path class="st4" d="M113.87,216.52c0-9.74,7.09-33.58,16.38-38.4c-1.07-0.56-2.16-0.92-3.28-0.92c-10.86,0-19.66,28.46-19.66,39.32
	s8.8,19.66,19.66,19.66c1.12,0,2.21-0.15,3.28-0.33C120.96,234.28,113.87,226.25,113.87,216.52z"/>
<g>
	<path class="st5" d="M7.32,367.23v-74.74c19.13-8.45,138.86-31.81,159.04-35.94l52.03-5.96c2.29-0.13,4.59-0.13,6.88-0.13
		c38.01,0,75.88,7.47,111.6,22.35c-14.68,5.37-29.03,11.73-42.99,18.94l-90.24,46.66C170.89,344.69,38.58,354.26,7.32,367.23"/>
	<path class="st4" d="M203.65,338.4c30.93-5.96,62.32-8.91,93.71-8.91c64.61,0,238.23,12.58,299.04,37.75V253.28l-127.94-4
		c-2.62,0-5.24,0-7.86,0.07l-74.84,9.04c-16.58,3.67-32.9,8.52-48.89,14.42c-14.68,5.37-29.03,11.73-42.99,18.94
		C293.89,291.74,203.65,338.4,203.65,338.4z"/>
	<path class="st4" d="M7.32,367.23v26.21H596.4v-26.21C474.71,316.88,129.01,316.88,7.32,367.23z"/>
</g>
<path class="st2" d="M7.32,367.23v13.11c121.69-50.35,467.39-50.35,589.08,0v-13.11C474.71,316.88,129.01,316.88,7.32,367.23z"/>
<path class="st3" d="M277.7,196.86c-7.24,0-13.11,18.97-13.11,26.21c0,7.24,5.86,13.11,13.11,13.11c7.24,0,13.11-5.86,13.11-13.11
	C290.81,215.83,284.94,196.86,277.7,196.86z"/>
<path class="st4" d="M271.15,223.07c0-6.11,4.18-20.52,9.83-24.89c-1.05-0.81-2.14-1.32-3.28-1.32c-7.24,0-13.11,18.97-13.11,26.21
	c0,7.24,5.86,13.11,13.11,13.11c1.14,0,2.22-0.19,3.28-0.47C275.33,234.25,271.15,229.17,271.15,223.07z"/>
<path class="st4" d="M218.72,255.83c0-14.48-11.74-65.53-26.21-65.53c-14.48,0-26.21,51.05-26.21,65.53
	c0,14.48,11.74,26.21,26.21,26.21C206.99,282.05,218.72,270.31,218.72,255.83z"/>
<path class="st2" d="M172.85,255.83c0-13.36,10.01-57.81,22.94-64.57c-1.07-0.56-2.16-0.96-3.28-0.96
	c-14.48,0-26.21,51.05-26.21,65.53c0,14.48,11.74,26.21,26.21,26.21c1.12,0,2.19-0.2,3.28-0.33
	C182.88,280.09,172.85,269.19,172.85,255.83z"/>
<path class="st5" d="M461.18,242.73c0-21.72-17.6-91.74-39.32-91.74s-39.32,70.03-39.32,91.74s17.6,39.32,39.32,39.32
	S461.18,264.44,461.18,242.73z"/>
<path class="st6" d="M395.65,242.73c0-19.48,14.17-77.81,32.77-89.61c-2.13-1.36-4.32-2.13-6.55-2.13
	c-21.72,0-39.32,70.03-39.32,91.74s17.6,39.32,39.32,39.32c2.23,0,4.42-0.23,6.55-0.59C409.83,278.33,395.65,262.2,395.65,242.73z"
	/>
<path class="st7" d="M277.7,111.67c0,14.48-11.73,26.21-26.21,26.21h-91.74c-14.48,0-26.21-11.73-26.21-26.21
	s11.73-26.21,26.21-26.21c0-18.09,14.68-32.77,32.77-32.77c12.12,0,22.61,6.68,28.31,16.51c3.15-2.16,6.95-3.41,11.01-3.41
	c10.88,0,19.66,8.78,19.66,19.66C265.97,85.45,277.7,97.18,277.7,111.67z"/>
<path class="st8" d="M146.64,111.67c0-14.48,11.73-26.21,26.21-26.21c0-15.78,11.18-28.95,26.04-32.06
	c-2.07-0.42-4.18-0.71-6.38-0.71c-18.09,0-32.77,14.68-32.77,32.77c-14.48,0-26.21,11.73-26.21,26.21s11.73,26.21,26.21,26.21h13.11
	C158.37,137.88,146.64,126.15,146.64,111.67z"/>
<path class="st7" d="M474.29,72.35c0,14.48-11.73,26.21-26.21,26.21h-91.74c-14.48,0-26.21-11.73-26.21-26.21
	s11.73-26.21,26.21-26.21c0-18.09,14.68-32.77,32.77-32.77c12.12,0,22.61,6.68,28.31,16.51c3.15-2.16,6.95-3.41,11.01-3.41
	c10.88,0,19.66,8.78,19.66,19.66C462.56,46.14,474.29,57.87,474.29,72.35z"/>
<path class="st8" d="M343.23,72.35c0-14.48,11.73-26.21,26.21-26.21c0-15.78,11.18-28.95,26.04-32.06
	c-2.07-0.42-4.18-0.71-6.38-0.71c-18.09,0-32.77,14.68-32.77,32.77c-14.48,0-26.21,11.73-26.21,26.21s11.73,26.21,26.21,26.21h13.11
	C354.96,98.56,343.23,86.83,343.23,72.35z"/>
<path class="st9" d="M453.91,40.17c-2.75-11.6-13.11-20.25-25.49-20.25c-3.01,0-5.9,0.59-8.72,1.57
	c-7.21-8.98-18.28-14.68-30.6-14.68c-19.66,0-35.91,14.48-38.79,33.35c-15.2,2.88-26.74,16.19-26.74,32.18
	c0,18.09,14.68,32.77,32.77,32.77h91.74c18.09,0,32.77-14.68,32.77-32.77C480.84,56.29,469.18,42.93,453.91,40.17z M448.08,92.01
	h-91.74c-10.81,0-19.66-8.85-19.66-19.66s8.85-19.66,19.66-19.66c5.64,0,11.01,2.42,14.74,6.68c2.42,2.69,6.55,2.95,9.24,0.52
	c2.75-2.36,3.01-6.49,0.59-9.24c-4.59-5.18-10.68-8.72-17.37-10.22c2.62-11.73,13.11-20.51,25.56-20.51
	c14.48,0,26.21,11.73,26.21,26.21c0,3.6,2.95,6.55,6.55,6.55s6.55-2.95,6.55-6.55c0-4.46-0.79-8.78-2.16-12.78
	c0.72-0.13,1.44-0.33,2.16-0.33c7.21,0,13.11,5.9,13.11,13.11c0,3.21-1.18,6.36-3.34,8.72c-2.42,2.75-2.16,6.88,0.52,9.31
	c1.25,1.11,2.82,1.64,4.39,1.64c1.77,0,3.6-0.72,4.85-2.16c2.62-2.95,4.46-6.42,5.5-10.09c8.19,2.36,14.29,9.83,14.29,18.81
	C467.74,83.16,458.89,92.01,448.08,92.01z"/>
<path class="st9" d="M257.32,79.49c-2.75-11.6-13.11-20.25-25.49-20.25c-3.01,0-5.9,0.59-8.72,1.57
	c-7.21-8.98-18.28-14.68-30.6-14.68c-19.66,0-35.91,14.48-38.79,33.35c-15.2,2.88-26.74,16.19-26.74,32.18
	c0,18.09,14.68,32.77,32.77,32.77h91.74c18.09,0,32.77-14.68,32.77-32.77C284.25,95.61,272.59,82.24,257.32,79.49z M251.49,131.33
	h-91.74c-10.81,0-19.66-8.85-19.66-19.66s8.85-19.66,19.66-19.66c5.64,0,11.01,2.42,14.74,6.68c2.42,2.69,6.55,2.95,9.24,0.52
	c2.75-2.36,3.01-6.49,0.59-9.24c-4.59-5.18-10.68-8.72-17.37-10.22c2.62-11.73,13.11-20.51,25.56-20.51
	c14.48,0,26.21,11.73,26.21,26.21c0,3.6,2.95,6.55,6.55,6.55s6.55-2.95,6.55-6.55c0-4.46-0.79-8.78-2.16-12.78
	c0.72-0.13,1.44-0.33,2.16-0.33c7.21,0,13.11,5.9,13.11,13.11c0,3.21-1.18,6.36-3.34,8.72c-2.42,2.75-2.16,6.88,0.52,9.31
	c1.25,1.11,2.82,1.64,4.39,1.64c1.77,0,3.6-0.72,4.85-2.16c2.62-2.95,4.46-6.42,5.5-10.09c8.19,2.36,14.29,9.83,14.29,18.81
	C271.15,122.48,262.3,131.33,251.49,131.33z"/>
<path class="st9" d="M596.4,246.73l-128.66-4c0-8.26-3.87-32.9-11.53-55.37c-7.6-22.48-19.13-42.92-34.34-42.92
	c-30.47,0-45.87,81.72-45.87,98.3c0,3.8,0.52,7.4,1.38,10.94c-13.5,3.28-27,7.34-40.37,12.12c-17.23-6.95-34.86-12.32-52.88-15.99
	c0.07-0.2,0.13-0.33,0.13-0.52v-7.73c7.6-2.75,13.11-9.96,13.11-18.48c0-7.6-6.16-32.77-19.66-32.77s-19.66,25.16-19.66,32.77
	c0,8.52,5.5,15.73,13.11,18.48v5.96c-15.14-2.36-30.41-3.6-45.87-3.6h-1.31c-3.34-21.1-13.3-60.16-31.45-60.16
	c-20.64,0-30.6,50.26-32.44,67.56c-8.91,1.97-17.76,4.33-26.54,7.21v-16.71c11.27-2.95,19.66-13.11,19.66-25.29
	c0-9.44-8.13-45.87-26.21-45.87s-26.21,36.43-26.21,45.87c0,12.19,8.39,22.35,19.66,25.29v20.58c0,0.26,0.13,0.39,0.13,0.66
	c-5.31,2.03-110.62,21.13-115.86,23.49c-2.42,1.05-3.93,3.34-3.93,5.96v100.95c0,3.6,2.95,6.55,6.55,6.55H596.4
	c3.6,0,6.55-2.95,6.55-6.55V253.28C602.95,249.68,600,246.73,596.4,246.73z M421.87,157.54c10.03,0,32.77,49.48,32.77,85.19
	c0,18.09-14.68,32.77-32.77,32.77c-18.09,0-32.77-14.68-32.77-32.77C389.1,207.01,411.84,157.54,421.87,157.54z M277.7,203.93
	c2.82,3.15,6.55,13.7,6.55,19.13c0,3.6-2.95,6.55-6.55,6.55c-3.6,0-6.55-2.95-6.55-6.55C271.15,217.63,274.88,207.08,277.7,203.93z
	 M192.44,196.86c6.55,1.18,17.56,35.06,19.4,54v0.13c0,0.07,0.07,0.07,0.07,0.13c0.13,1.7,0.26,3.34,0.26,4.72
	c0,10.81-8.85,19.66-19.66,19.66c-10.81,0-19.66-8.85-19.66-19.66C172.85,238.66,185.43,198.17,192.44,196.86z M113.87,216.52
	c0-10.88,8.45-31.98,13.04-32.77c4.72,0.79,13.17,21.89,13.17,32.77c0,7.21-5.9,13.11-13.11,13.11S113.87,223.72,113.87,216.52z
	 M13.87,296.82c15.4-6.55,131.26-28.6,147.18-32.33c3.28,11.8,12.84,20.97,24.9,23.46v20.31c0,3.6,2.95,6.55,6.55,6.55
	c3.6,0,6.55-2.95,6.55-6.55v-20.31c14.55-2.95,25.56-15.66,26.08-30.93c31.91-0.07,63.43,5.37,93.64,15.92
	c-9.37,3.93-18.74,8.26-27.92,12.98l-88.99,46c-29.75,5.83-159.17,14.48-188.01,25.75V296.82z M589.84,386.89H13.87v-15.27
	c29.29-11.8,159.3-20.71,189.71-26.67h0.07c0.79,0,1.51-0.2,2.29-0.46c91.68-17.56,295.5-8.58,383.9,27.13V386.89z M589.84,357.67
	c-76.93-30.14-267.45-40.76-347.6-31.85l54.65-28.24c13.89-7.14,28.05-13.43,42.27-18.61c14.29-5.31,28.77-9.63,43.18-13.04
	c6.95,11.73,18.94,20.12,32.96,22.15v33.29c0,3.6,2.95,6.55,6.55,6.55s6.55-2.95,6.55-6.55v-33.29
	c17.82-2.56,32.31-15.33,37.35-32.24l124.07,4V357.67z"/>
</svg>
