<?xml version="1.0" encoding="utf-8"?>
<!-- Generator: Adobe Illustrator 30.1.0, SVG Export Plug-In . SVG Version: 9.03 Build 0)  -->
<svg version="1.0" id="Layer_1" xmlns="http://www.w3.org/2000/svg" xmlns:xlink="http://www.w3.org/1999/xlink" x="0px" y="0px"
	 viewBox="0 0 600 400" style="enable-background:new 0 0 600 400;" xml:space="preserve">
<style type="text/css">
	.st0{fill:#FBE5A8;}
	.st1{fill:#FAA736;}
	.st2{fill:#F8981E;}
	.st3{fill:#ED8823;}
	.st4{fill:#CB7529;}
	.st5{fill:#F26347;}
	.st6{fill:#F0542C;}
	.st7{fill:#231F20;}
</style>
<rect x="0.77" class="st0" width="602.18" height="400"/>
<path class="st1" d="M316.5,258.45l-5.12-2.05c-18.57-7.44-37.74-13.08-57.26-16.91v0.38v-0.38c-20.28-3.98-40.93-6.02-61.68-6.02
	l-184.82,9v119.88c35.37-14.64,184.05-44.81,221.25-50.74l28.71-19.73C276.22,278.82,295.94,267.68,316.5,258.45z"/>
<path class="st2" d="M192.44,246.28c20.75,0,41.4,2.04,61.68,6.02c16.12,3.16,31.98,7.63,47.48,13.26c4.92-2.48,9.88-4.85,14.9-7.11
	l-5.12-2.05c-18.57-7.44-37.74-13.08-57.26-16.91c-20.28-3.98-40.93-6.02-61.68-6.02l-184.82,9v12.81L192.44,246.28z"/>
<path class="st2" d="M463.24,227.07c-50.85,0-100.81,10.76-146.74,31.38c-20.56,9.22-40.29,20.37-58.92,33.43l-28.71,19.73
	c87.87-14.01,284.66-3.83,368.23,30.74V227.07C597.1,227.07,463.24,227.07,463.24,227.07z"/>
<path class="st3" d="M463.24,227.07c-50.85,0-100.81,10.76-146.74,31.38c-20.56,9.22-40.29,20.37-58.92,33.43l-28.71,19.73
	c7.67-1.22,15.37-2.2,23.08-3.05l5.63-3.87c18.64-13.07,38.37-24.21,58.92-33.43c45.92-20.62,95.88-31.38,146.74-31.38h133.86
	v-12.81H463.24L463.24,227.07z"/>
<path class="st3" d="M7.62,362.36v31.24H597.1v-51.24C478.16,293.14,126.56,313.14,7.62,362.36z"/>
<path class="st4" d="M7.62,362.36v12.81c118.94-49.22,470.54-69.22,589.48-20v-12.81C478.16,293.14,126.56,313.14,7.62,362.36z"/>
<circle class="st5" cx="375.81" cy="98.97" r="38.43"/>
<path class="st6" d="M350.19,98.97c0-19.04,13.85-34.8,32.02-37.85c-2.09-0.35-4.22-0.58-6.4-0.58c-21.23,0-38.43,17.2-38.43,38.43
	s17.2,38.43,38.43,38.43c2.18,0,4.32-0.22,6.4-0.58C364.05,133.77,350.19,118.01,350.19,98.97z"/>
<path class="st7" d="M597.1,220.66H463.24c-34.27,0-67.83,4.8-100.24,14.09v-7.69h6.4c3.52,0,6.4-2.88,6.4-6.4s-2.88-6.4-6.4-6.4
	H363v-6.4c0-3.52-2.88-6.4-6.4-6.4c-3.52,0-6.4,2.88-6.4,6.4v12.81h-6.4v-6.4c0-3.52-2.88-6.4-6.4-6.4s-6.4,2.88-6.4,6.4v6.4
	c0,7.05,5.76,12.81,12.81,12.81h6.4v5.12c-11.4,3.71-22.67,8.07-33.75,12.94l-2.69-1.09c-17.36-6.92-35.1-12.3-53.22-16.14v-7.24
	h6.4c7.05,0,12.81-5.76,12.81-12.81v-6.4c0-3.52-2.88-6.4-6.4-6.4s-6.4,2.88-6.4,6.4v6.4h-6.4v-25.62c0-3.52-2.88-6.4-6.4-6.4
	c-3.52,0-6.4,2.88-6.4,6.4v19.21h-6.4v-6.4c0-3.52-2.88-6.4-6.4-6.4c-3.52,0-6.4,2.88-6.4,6.4v6.4c0,7.05,5.76,12.81,12.81,12.81
	h6.4v11.21c-18.19-3.14-36.64-4.8-55.27-4.8h-27.99v-25.62h6.4c7.05,0,12.81-5.76,12.81-12.81v-6.4c0-3.52-2.88-6.4-6.4-6.4
	s-6.4,2.88-6.4,6.4v6.4h-6.4v-19.21c0-3.52-2.88-6.4-6.4-6.4s-6.4,2.88-6.4,6.4v38.43h-6.4c-3.52,0-6.4-2.88-6.4-6.4v-6.4
	c0-3.52-2.88-6.4-6.4-6.4c-3.52,0-6.4,2.88-6.4,6.4v6.4c0,10.57,8.65,19.21,19.21,19.21h6.4v6.4l-144.02,9
	c-3.52,0-6.4,2.88-6.4,26.4V413.6c0-16.48,2.88-13.6,6.4-13.6H597.1c3.52,0,6.4-2.88,6.4-6.4V227.07
	C603.51,223.55,600.62,220.66,597.1,220.66z M14.02,248.88l178.42-9c37.02,0,73.27,6.53,107.86,19.21
	c-16.14,8.07-31.7,17.29-46.37,27.54l-26.45,18.51C193.08,310.72,47.14,340.07,14.02,353C14.02,353,14.02,248.88,14.02,248.88z
	 M590.7,387.19H356.6v-12.81h12.81c7.05,0,12.81-5.76,12.81-12.81v-6.4c0-3.52-2.88-6.4-6.4-6.4s-6.4,2.88-6.4,6.4v6.4H356.6v-25.62
	c0-3.52-2.88-6.4-6.4-6.4c-3.52,0-6.4,2.88-6.4,6.4v19.21h-6.4v-6.4c0-3.52-2.88-6.4-6.4-6.4s-6.4,2.88-6.4,6.4v6.4
	c0,7.05,5.76,12.81,12.81,12.81h6.4v19.21h-51.24v-12.81h6.4c7.05,0,12.81-5.76,12.81-12.81v-6.4c0-3.52-2.88-6.4-6.4-6.4
	s-6.4,2.88-6.4,6.4v6.4h-6.4v-32.02c0-3.52-2.88-6.4-6.4-6.4c-3.52,0-6.4,2.88-6.4,6.4v25.62h-12.81v-6.4c0-3.52-2.88-6.4-6.4-6.4
	s-6.4,2.88-6.4,6.4v6.4c0,7.05,5.76,12.81,12.81,12.81h12.81v19.21H14.02v-20.54c105.41-52.69,445.05-72.72,576.67-20V387.19z
	 M590.7,333c-74.04-29.01-258.37-39.58-335.55-31.58l6.08-4.29c18.13-12.68,37.6-23.7,57.9-32.86
	c45.54-20.43,94.02-30.81,144.11-30.81H590.7V333z"/>
<path class="st7" d="M471.89,271.9v6.4c0,7.05-5.76,12.81-12.81,12.81h-12.81v12.81c0,3.52-2.88,6.4-6.4,6.4s-6.4-2.88-6.4-6.4
	v-19.21h-6.4c-7.05,0-12.81-5.76-12.81-12.81v-6.4c0-3.52,2.88-6.4,6.4-6.4c3.52,0,6.4,2.88,6.4,6.4v6.4h6.4v-19.21
	c0-3.52,2.88-6.4,6.4-6.4s6.4,2.88,6.4,6.4v25.62h12.81v-6.4c0-3.52,2.88-6.4,6.4-6.4C469,265.5,471.89,268.38,471.89,271.9z"/>
<path class="st7" d="M375.81,143.8c24.72,0,44.83-20.11,44.83-44.83s-20.11-44.83-44.83-44.83s-44.83,20.11-44.83,44.83
	S351.09,143.8,375.81,143.8z M375.81,66.95c17.66,0,32.02,14.37,32.02,32.02s-14.37,32.02-32.02,32.02s-32.02-14.37-32.02-32.02
	S358.15,66.95,375.81,66.95z"/>
<path class="st7" d="M375.81,41.33c3.54,0,6.4-2.87,6.4-6.4V22.11c0-3.54-2.87-6.4-6.4-6.4s-6.4,2.87-6.4,6.4v12.81
	C369.41,38.46,372.28,41.33,375.81,41.33z"/>
<path class="st7" d="M421.1,60.09c1.64,0,3.28-0.63,4.53-1.88l9.06-9.06c2.5-2.5,2.5-6.55,0-9.06s-6.55-2.5-9.06,0l-9.06,9.06
	c-2.5,2.5-2.5,6.55,0,9.06C417.82,59.46,419.46,60.09,421.1,60.09z"/>
<path class="st7" d="M433.46,98.97c0,3.54,2.87,6.4,6.4,6.4h12.81c3.54,0,6.4-2.87,6.4-6.4c0-3.54-2.87-6.4-6.4-6.4h-12.81
	C436.33,92.57,433.46,95.44,433.46,98.97z"/>
<path class="st7" d="M425.63,139.73c-2.5-2.5-6.55-2.5-9.06,0c-2.5,2.5-2.5,6.55,0,9.06l9.06,9.06c1.25,1.25,2.89,1.88,4.53,1.88
	s3.28-0.63,4.53-1.88c2.5-2.5,2.5-6.55,0-9.06L425.63,139.73z"/>
<path class="st7" d="M369.41,163.02v12.81c0,3.54,2.87,6.4,6.4,6.4s6.4-2.87,6.4-6.4v-12.81c0-3.54-2.87-6.4-6.4-6.4
	S369.41,159.48,369.41,163.02z"/>
<path class="st7" d="M326,139.73l-9.06,9.06c-2.5,2.5-2.5,6.55,0,9.06c1.25,1.25,2.89,1.88,4.53,1.88s3.28-0.63,4.53-1.88l9.06-9.06
	c2.5-2.5,2.5-6.55,0-9.06S328.5,137.23,326,139.73z"/>
<path class="st7" d="M298.95,105.38h12.81c3.54,0,6.4-2.87,6.4-6.4c0-3.54-2.87-6.4-6.4-6.4h-12.81c-3.54,0-6.4,2.87-6.4,6.4
	C292.55,102.51,295.42,105.38,298.95,105.38z"/>
<path class="st7" d="M326,58.21c1.25,1.25,2.89,1.88,4.53,1.88s3.28-0.63,4.53-1.88c2.5-2.5,2.5-6.55,0-9.06L326,40.1
	c-2.5-2.5-6.55-2.5-9.06,0s-2.5,6.55,0,9.06L326,58.21z"/>
</svg>
