<?xml version="1.0" encoding="utf-8"?>
<!-- Generator: Adobe Illustrator 30.1.0, SVG Export Plug-In . SVG Version: 9.03 Build 0)  -->
<svg version="1.0" id="Layer_1" xmlns="http://www.w3.org/2000/svg" xmlns:xlink="http://www.w3.org/1999/xlink" x="0px" y="0px"
	 viewBox="0 0 600 400" style="enable-background:new 0 0 600 400;" xml:space="preserve">
<style type="text/css">
	.st0{fill:#B9E0EF;}
	.st1{fill:#C3996C;}
	.st2{fill:#8B5F3D;}
	.st3{fill:#764D2A;}
	.st4{fill:#87C542;}
	.st5{fill:#5FAD46;}
	.st6{fill:#509141;}
	.st7{fill:#467F3C;}
	.st8{fill:#4493CF;}
	.st9{fill:#A1C6E9;}
	.st10{fill:#231F20;}
</style>
<rect x="0.77" class="st0" width="602.18" height="400"/>
<polygon class="st1" points="414.55,268.69 183.08,268.69 248.8,93.62 274.43,81.11 298.82,31.09 "/>
<polygon class="st2" points="430.12,174.9 386.35,93.62 354.49,145.39 414.55,268.69 594.14,268.69 594.14,239.91 "/>
<polygon class="st3" points="360.74,145.39 357.86,139.93 354.49,145.39 414.55,268.69 420.81,268.69 "/>
<polygon class="st2" points="220.8,168.23 198.77,137.39 155.01,218.67 143.38,248.17 143.45,263.8 180.02,264.24 220.03,170.28 "/>
<polygon class="st3" points="176.83,268.69 183.08,268.69 220.03,170.28 220.8,168.23 216.86,162.71 "/>
<path class="st4" d="M367.6,249.94c-4.88,0-9.25,1.88-12.57,4.88c-3.81,3.38-6.19,8.38-6.19,13.88h37.52
	C386.35,258.31,377.98,249.94,367.6,249.94z"/>
<path class="st4" d="M267.55,249.94c-4.88,0-9.25,1.88-12.57,4.88c-3.81,3.38-6.19,8.38-6.19,13.88h37.52
	C286.31,258.31,277.93,249.94,267.55,249.94z"/>
<path class="st5" d="M236.29,237.43c-10.38,0-18.76,8.38-18.76,18.76c0,4.81,1.81,9.19,4.81,12.51h26.45c0-5.5,2.38-10.5,6.19-13.88
	C254.3,245.06,246.23,237.43,236.29,237.43z"/>
<path class="st6" d="M242.59,238.56c-1.97-0.7-4.08-1.13-6.3-1.13c-10.38,0-18.76,8.38-18.76,18.76c0,4.81,1.81,9.19,4.81,12.51
	h12.51c-3-3.31-4.81-7.69-4.81-12.51C230.04,248,235.28,241.13,242.59,238.56z"/>
<path class="st6" d="M342.59,231.18c0-10.36-8.4-31.26-18.76-31.26c-10.36,0-18.76,20.9-18.76,31.26s8.4,18.76,18.76,18.76
	C334.19,249.94,342.59,241.54,342.59,231.18z"/>
<path class="st7" d="M317.58,231.18c0-8.17,5.23-22.83,12.51-28.71c-1.96-1.58-4.06-2.56-6.25-2.56c-10.36,0-18.76,20.9-18.76,31.26
	s8.4,18.76,18.76,18.76c2.21,0,4.29-0.45,6.25-1.15C322.81,246.2,317.58,239.33,317.58,231.18z"/>
<rect x="7.49" y="268.69" class="st6" width="586.65" height="25.01"/>
<rect x="7.49" y="268.69" class="st7" width="586.65" height="6.25"/>
<path class="st8" d="M7.49,293.7v87.54c0,6.91,5.6,12.51,12.51,12.51h561.64c6.91,0,12.51-5.6,12.51-12.51V293.7H7.49z"/>
<rect x="7.49" y="293.7" class="st9" width="586.65" height="12.51"/>
<path class="st5" d="M148.75,243.68c17.26,0,31.26-14,31.26-31.26s-14-68.78-31.26-68.78s-31.26,51.52-31.26,68.78
	S131.49,243.68,148.75,243.68z"/>
<path class="st6" d="M130,212.42c0-15.13,10.74-56.52,25.01-66.56c-2.02-1.42-4.11-2.22-6.25-2.22c-17.26,0-31.26,51.52-31.26,68.78
	s14,31.26,31.26,31.26c2.14,0,4.23-0.22,6.25-0.63C140.74,240.16,130,227.55,130,212.42z"/>
<path class="st10" d="M442.63,362.48H380.1c-3.46,0-6.25,2.8-6.25,6.25s2.79,6.25,6.25,6.25h62.53c3.46,0,6.25-2.8,6.25-6.25
	S446.09,362.48,442.63,362.48z"/>
<path class="st10" d="M405.11,324.97h50.02c3.46,0,6.25-2.8,6.25-6.25c0-3.45-2.79-6.25-6.25-6.25h-50.02
	c-3.46,0-6.25,2.8-6.25,6.25C398.86,322.17,401.65,324.97,405.11,324.97z"/>
<path class="st10" d="M466.11,354.97h50.02c3.46,0,6.25-2.8,6.25-6.25c0-3.45-2.79-6.25-6.25-6.25h-50.02
	c-3.46,0-6.25,2.8-6.25,6.25C459.86,352.17,462.65,354.97,466.11,354.97z"/>
<path class="st10" d="M527.11,324.97h50.02c3.46,0,6.25-2.8,6.25-6.25c0-3.45-2.79-6.25-6.25-6.25h-50.02
	c-3.46,0-6.25,2.8-6.25,6.25C520.86,322.17,523.65,324.97,527.11,324.97z"/>
<path class="st10" d="M348.84,349.98h37.52c3.46,0,6.25-2.8,6.25-6.25s-2.79-6.25-6.25-6.25h-37.52c-3.46,0-6.25,2.8-6.25,6.25
	S345.38,349.98,348.84,349.98z"/>
<path class="st10" d="M255.05,324.97h50.02c3.46,0,6.25-2.8,6.25-6.25c0-3.45-2.79-6.25-6.25-6.25h-50.02
	c-3.46,0-6.25,2.8-6.25,6.25C248.8,322.17,251.59,324.97,255.05,324.97z"/>
<path class="st10" d="M217.53,362.48h-62.53c-3.46,0-6.25,2.8-6.25,6.25s2.79,6.25,6.25,6.25h62.53c3.46,0,6.25-2.8,6.25-6.25
	S220.99,362.48,217.53,362.48z"/>
<path class="st10" d="M305.07,368.74c0,3.45,2.79,6.25,6.25,6.25h18.76c3.46,0,6.25-2.8,6.25-6.25s-2.79-6.25-6.25-6.25h-18.76
	C307.87,362.48,305.07,365.29,305.07,368.74z"/>
<path class="st10" d="M25.07,371.74c0,3.45,2.79,6.25,6.25,6.25h18.76c3.46,0,6.25-2.8,6.25-6.25s-2.79-6.25-6.25-6.25H31.32
	C27.87,365.48,25.07,368.29,25.07,371.74z"/>
<path class="st10" d="M167.51,324.97h50.02c3.46,0,6.25-2.8,6.25-6.25c0-3.45-2.79-6.25-6.25-6.25h-50.02
	c-3.46,0-6.25,2.8-6.25,6.25C161.26,322.17,164.05,324.97,167.51,324.97z"/>
<path class="st10" d="M236.29,356.23h50.02c3.46,0,6.25-2.8,6.25-6.25c0-3.45-2.79-6.25-6.25-6.25h-50.02
	c-3.46,0-6.25,2.8-6.25,6.25C230.04,353.43,232.83,356.23,236.29,356.23z"/>
<path class="st10" d="M25.29,336.23h50.02c3.46,0,6.25-2.8,6.25-6.25c0-3.45-2.79-6.25-6.25-6.25H25.29c-3.46,0-6.25,2.8-6.25,6.25
	C19.04,333.43,21.83,336.23,25.29,336.23z"/>
<path class="st10" d="M242.54,156.15h37.52c3.46,0,6.25-2.8,6.25-6.25c0-3.45-2.79-6.25-6.25-6.25h-37.52
	c-3.46,0-6.25,2.8-6.25,6.25C236.29,153.35,239.09,156.15,242.54,156.15z"/>
<path class="st10" d="M597.08,234.41l-159.89-64.2l-45.39-79.72c-1.06-1.88-3.06-3.06-5.25-3.13c-2.19-0.06-4.25,1-5.44,2.88
	l-26.51,41.08L304.44,28.34c-2.13-4.31-9.13-4.31-11.25,0l-23.38,48.08l-23.76,11.57c-1.44,0.69-2.56,1.94-3.13,3.44l-24.39,65.03
	l-14.51-22.45c-1.19-1.88-3.25-3-5.44-2.88c-2.19,0.06-4.19,1.25-5.25,3.13l-18.01,31.64c-7.69-18.82-16.63-28.51-26.57-28.51
	c-10.57,0-20.01,10.75-27.95,31.95c-5.56,14.76-9.57,32.83-9.57,43.08v2.81c0,12.23,11.82,24.37,12.64,25.19
	c5.17,4.57,11.56,7.78,18.63,8.96v13.07H17.05h-3.3H1.24v118.8C1.24,391.56,9.68,400,20,400h561.64c10.32,0,18.76-8.44,18.76-18.76
	V239.91C600.4,237.6,599.08,235.48,597.08,234.41z M253.8,98.12l23.38-11.38c1.25-0.63,2.25-1.63,2.88-2.88l18.76-38.52l21.82,44.77
	l-7.32-2.44c-2.5-0.81-5.25,0-6.88,2.06l-25.01,31.26c-2.19,2.69-1.75,6.63,1,8.75c1.13,0.94,2.5,1.38,3.88,1.38
	c1.81,0,3.63-0.81,4.88-2.38l22.32-27.82l14.57,4.88h0.19l30.58,62.84h-35.01c-3.44,0-6.25,2.81-6.25,6.25s2.81,6.25,6.25,6.25
	h41.14l39.58,81.28h-12.82c-2.81-10.75-12.51-18.76-24.14-18.76c-6.19,0-12.13,2.31-16.69,6.44c-3.69,3.25-6.19,7.57-7.44,12.32
	h-13.38v-7.13c10.75-2.81,18.76-12.51,18.76-24.14c0-12.88-9.75-37.52-25.01-37.52c-15.26,0-25.01,24.64-25.01,37.52
	c0,11.63,8,21.32,18.76,24.14v7.13h-25.89c-2.81-10.75-12.51-18.76-24.14-18.76c-3,0-6,0.56-8.75,1.63
	c-4.06-8.38-12.69-14.13-22.51-14.13c-13.82,0-25.01,11.19-25.01,25.01c0,2.13,0.38,4.19,0.88,6.25h-20.07l12.51-33.2l39.27-16.82
	h36.2c2.88,0,5.38-1.94,6.07-4.75l6.25-25.01c0.81-3.31-1.19-6.75-4.56-7.57c-3.31-0.88-6.75,1.19-7.57,4.56l-5.06,20.26h-32.64
	c-0.88,0-1.69,0.19-2.44,0.5l-29.45,12.63C210.65,213.05,253.8,98.12,253.8,98.12z M378.35,262.44h-21.51
	c0.63-1.13,1.44-2.13,2.38-3c2.31-2.06,5.31-3.25,8.38-3.25C372.22,256.19,376.16,258.75,378.35,262.44z M323.83,243.68
	c-6.88,0-12.51-5.63-12.51-12.51c0-9.38,7.82-25.01,12.51-25.01c4.69,0,12.51,15.63,12.51,25.01
	C336.33,238.06,330.71,243.68,323.83,243.68z M278.31,262.44H256.8c0.63-1.13,1.44-2.13,2.38-3c2.31-2.06,5.31-3.25,8.38-3.25
	C272.18,256.19,276.12,258.75,278.31,262.44z M248.36,252.87c-2.31,2.81-4,6.07-4.94,9.57h-17.95c-1.06-1.88-1.69-4-1.69-6.25
	c0-6.88,5.63-12.51,12.51-12.51C242.11,243.68,246.92,247.5,248.36,252.87z M186.27,212.42c0-7.5-2.19-19.26-5.5-30.83l18.32-32.2
	l14.01,21.63l-34.33,91.41h-23.76v-13.07C172.7,246.37,186.27,230.99,186.27,212.42z M123.74,212.42
	c0-18.63,14.82-62.53,25.01-62.53c10.19,0,25.01,43.89,25.01,62.53c0,13.82-11.19,25.01-25.01,25.01
	C134.94,237.43,123.74,226.24,123.74,212.42z M587.89,381.24c0,3.44-2.81,6.25-6.25,6.25H20c-3.44,0-6.25-2.81-6.25-6.25v-31.26
	h61.26c3.44,0,6.25-2.81,6.25-6.25s-2.81-6.25-6.25-6.25H13.74v-37.52h574.15V381.24z M587.89,287.45H13.74v-12.51h574.15V287.45z
	 M587.89,262.44h-169.4l-27.07-55.46l34.89,4.94l17.19,28.7c0.94,1.56,2.44,2.63,4.13,2.94l140.26,15.25
	C587.89,258.81,587.89,262.44,587.89,262.44z M587.89,246.06l-135.07-14.19l-17.32-28.89c-1-1.63-2.63-2.75-4.5-3l-32.14-4.56
	l-14.01-2l-23.89-48.96l25.07-38.77l21.63,37.95h-21.32c-3.44,0-6.25,2.81-6.25,6.25s2.81,6.25,6.25,6.25h28.45l12.44,21.88
	c0.63,1,1.5,1.88,2.5,2.38l158.14,63.26C587.89,243.67,587.89,246.06,587.89,246.06z"/>
</svg>
