<?xml version="1.0" encoding="utf-8"?>
<!-- Generator: Adobe Illustrator 30.1.0, SVG Export Plug-In . SVG Version: 9.03 Build 0)  -->
<svg version="1.0" id="Layer_1" xmlns="http://www.w3.org/2000/svg" xmlns:xlink="http://www.w3.org/1999/xlink" x="0px" y="0px"
	 viewBox="0 0 600 400" style="enable-background:new 0 0 600 400;" xml:space="preserve">
<style type="text/css">
	.st0{fill:#B9E0EF;}
	.st1{fill:#8B5F3D;}
	.st2{fill:#A1C6E9;}
	.st3{fill:#764D2A;}
	.st4{fill:#6C9DD3;}
	.st5{fill:#A97D51;}
	.st6{fill:#87C542;}
	.st7{fill:#5FAD46;}
	.st8{fill:#509141;}
	.st9{fill:#231F20;}
	.st10{fill:#F6937A;}
	.st11{fill:#F26347;}
	.st12{fill:#F0542C;}
	.st13{fill:#4E7FC1;}
	.st14{fill:#406EB5;}
	.st15{fill:#3463AF;}
</style>
<rect x="0.77" class="st0" width="602.18" height="400"/>
<path class="st1" d="M233.54,182.89H596.5l-1,212.68H251.26c-9.78,0-17.72-7.94-17.72-17.72V182.89L233.54,182.89z"/>
<path class="st2" d="M366.46,395.57h-115.2c-9.79,0-17.72-7.93-17.72-17.72V182.89h53.17c24.46,0,44.31,19.85,44.31,44.31v132.93
	C331.02,379.71,346.88,395.57,366.46,395.57z"/>
<path class="st3" d="M339.88,360.12V227.2c0-24.46-19.85-44.31-44.31-44.31h-8.86c24.46,0,44.31,19.85,44.31,44.31v132.93
	c0,19.58,15.86,35.45,35.45,35.45h175.86C522.74,395.57,339.88,379.71,339.88,360.12z"/>
<path class="st4" d="M242.4,377.85V182.89h-8.86v194.96c0,9.79,7.93,17.72,17.72,17.72h8.86
	C250.33,395.57,242.4,387.64,242.4,377.85z"/>
<path class="st5" d="M233.54,377.85V182.89c0-9.79-7.94-17.72-17.72-17.72H4.5v221.54c0-12.23,9.93-22.15,22.15-22.15
	s22.15,9.93,22.15,22.15c0,3.15-0.66,6.16-1.82,8.86h204.26C241.47,395.57,233.54,387.63,233.54,377.85z"/>
<path class="st6" d="M26.66,364.55c-12.23,0-22.15,9.93-22.15,22.15v8.86H47c1.15-2.7,1.82-5.72,1.82-8.86
	C48.81,374.48,38.89,364.55,26.66,364.55z"/>
<path class="st4" d="M313.29,382.28c-1.91,0-3.72,0.4-5.36,1.15c0.62-1.77,0.93-3.63,0.93-5.58c0-9.79-7.93-17.72-17.72-17.72
	c-7.13,0-13.29,4.21-16.08,10.32c-1.82-0.93-3.9-1.46-6.07-1.46c-7.36,0-13.29,5.94-13.29,13.29c0,7.36,5.94,13.29,13.29,13.29h57.6
	C326.59,388.21,320.65,382.28,313.29,382.28z"/>
<path class="st7" d="M215.81,156.3c0-4.87-3.99-8.86-8.86-8.86c-1.77,0-3.41,0.49-4.79,1.42c-1.33-5.89-6.6-10.28-12.94-10.28
	c-7.36,0-13.29,5.94-13.29,13.29c0,7.36,5.94,13.29,13.29,13.29h17.72C211.83,165.16,215.81,161.18,215.81,156.3z"/>
<path class="st8" d="M578.77,160.73c0-12.23-9.93-22.15-22.15-22.15c-8.2,0-15.33,4.43-19.19,11.08c-2.13-1.37-4.65-2.22-7.4-2.22
	c-7.36,0-13.29,5.94-13.29,13.29c-9.79,0-17.72,7.93-17.72,17.72c0,1.55,0.18,3.01,0.58,4.43h96.33c0.4-1.42,0.58-2.88,0.58-4.43
	C596.5,168.66,588.56,160.73,578.77,160.73z"/>
<path class="st8" d="M560.05,360.12c-9.79,0-17.72,7.94-17.72,17.72s7.94,17.72,17.72,17.72h22.15l-4.43-17.72
	C577.77,368.06,569.84,360.12,560.05,360.12z"/>
<path class="st7" d="M582.2,368.98c-7.34,0-13.29,5.95-13.29,13.29s5.95,13.29,13.29,13.29h13.29v-13.29
	C595.5,374.93,589.54,368.98,582.2,368.98z"/>
<path class="st9" d="M582.89,156.7c-1.95-12.76-12.98-22.55-26.28-22.55c-8.06,0-15.64,3.72-20.65,9.88
	c-1.91-0.66-3.9-1.02-5.94-1.02c-8.37,0-15.42,5.85-17.24,13.65c-10.37,1.86-18.21,10.94-18.21,21.8h-257.1
	c-1.82-8.95-9.08-15.91-18.17-17.37c0.58-1.51,0.93-3.1,0.93-4.79c0-7.31-5.98-13.29-13.29-13.29c-0.8,0-1.55,0.09-2.3,0.22
	c-3.01-5.49-8.82-9.08-15.42-9.08c-9.79,0-17.72,7.93-17.72,17.72c0,3.23,0.93,6.25,2.48,8.86H4.5c-2.44,0-4.43,1.99-4.43,4.43
	v230.4c0,2.44,1.99,4.43,4.43,4.43H595.5c2.44,0,4.43-1.99,4.43-4.43l1-217.11C600.93,167.65,593.13,158.61,582.89,156.7z
	 M189.23,143.01c4.17,0,7.71,2.79,8.6,6.82c0.58,2.39,2.92,3.9,5.32,3.37c0.31-0.09,2.92-1.33,3.81-1.33c2.44,0,4.43,1.99,4.43,4.43
	c0,2.44-1.99,4.43-4.43,4.43h-17.72c-4.87,0-8.86-3.99-8.86-8.86C180.37,147,184.35,143.01,189.23,143.01z M43.76,391.14H8.94v-4.43
	c0-9.79,7.93-17.72,17.72-17.72s17.72,7.93,17.72,17.72C44.38,388.21,44.12,389.68,43.76,391.14z M52.85,391.14
	c0.27-1.46,0.4-2.92,0.4-4.43c0-14.67-11.92-26.59-26.59-26.59c-6.82,0-13.03,2.61-17.72,6.82V169.6h206.88
	c7.31,0,13.29,5.98,13.29,13.29v194.96c0,5.01,1.73,9.57,4.56,13.29H52.85z M268.98,391.14c-4.87,0-8.86-3.99-8.86-8.86
	c0-4.87,3.99-8.86,8.86-8.86c1.42,0,2.79,0.35,4.03,0.97c1.11,0.53,2.35,0.62,3.5,0.22c1.15-0.35,2.08-1.24,2.57-2.3
	c2.13-4.7,6.87-7.75,12.05-7.75c7.31,0,13.29,5.98,13.29,13.29c0,1.46-0.22,2.79-0.66,4.12c-0.62,1.68-0.13,3.54,1.2,4.74
	c1.28,1.2,3.19,1.51,4.83,0.75c1.06-0.49,2.26-0.75,3.5-0.75c3.28,0,6.11,1.82,7.62,4.43H268.98z M330.4,391.14
	c-1.99-7.62-8.86-13.29-17.1-13.29c0-12.23-9.93-22.15-22.15-22.15c-7.22,0-13.96,3.54-18.08,9.35c-1.33-0.31-2.7-0.49-4.08-0.49
	c-9.79,0-17.72,7.93-17.72,17.72c0,3.23,0.93,6.25,2.48,8.86h-2.48c-7.31,0-13.29-5.98-13.29-13.29V187.32h48.74
	c21.98,0,39.88,17.9,39.88,39.88v132.93c0,12.54,5.8,23.71,14.89,31.02H330.4z M566.96,391.14h-6.91c-7.31,0-13.29-5.98-13.29-13.29
	c0-7.31,5.98-13.29,13.29-13.29c3.99,0,7.67,1.82,10.15,4.74c-3.5,3.28-5.72,7.84-5.72,12.98
	C564.48,385.51,565.41,388.52,566.96,391.14z M591.06,391.14h-8.86c-4.87,0-8.86-3.99-8.86-8.86c0-4.87,3.99-8.86,8.86-8.86
	c4.87,0,8.86,3.99,8.86,8.86V391.14z M591.06,367.03c-2.61-1.55-5.63-2.48-8.86-2.48c-1.42,0-2.79,0.22-4.12,0.53
	c-4.08-5.8-10.77-9.39-18.03-9.39c-12.23,0-22.15,9.93-22.15,22.15c0,5.01,1.73,9.57,4.56,13.29H366.46
	c-17.1,0-31.02-13.91-31.02-31.02V227.2c0-16.48-8.24-31.06-20.83-39.88h277.44L591.06,367.03z M503.45,178.46
	c0-7.31,5.98-13.29,13.29-13.29c2.44,0,4.43-1.99,4.43-4.43c0-4.87,3.99-8.86,8.86-8.86c1.73,0,3.46,0.53,5.01,1.51
	c1.02,0.66,2.26,0.89,3.41,0.58c1.2-0.27,2.22-1.02,2.84-2.08c3.19-5.54,8.95-8.86,15.33-8.86c9.79,0,17.72,7.93,17.72,17.72
	c0,2.44,1.99,4.43,4.43,4.43c7.31,0,13.29,5.98,13.29,13.29H503.45z"/>
<path class="st9" d="M313.29,275.94v-25.19c0-19.04-6.55-37.72-18.7-52.9c-1.53-1.91-4.19-2.06-6.1-0.53
	c-1.91,1.53-2.09,4.47-0.56,6.38c10.64,13.31,16.5,30.02,16.5,47.06v25.19c0,2.45,1.99,4.43,4.43,4.43S313.3,278.38,313.29,275.94
	L313.29,275.94z"/>
<path class="st9" d="M313.29,298.09c-2.45,0-4.43,1.99-4.43,4.43v48.74c0,2.45,1.99,4.43,4.43,4.43s4.43-1.99,4.43-4.43v-48.74
	C317.72,300.08,315.74,298.09,313.29,298.09z"/>
<path class="st9" d="M255.69,249.35c2.45,0,4.43-1.99,4.43-4.43v-13.29c0-2.45-1.99-4.43-4.43-4.43c-2.45,0-4.43,1.99-4.43,4.43
	v13.29C251.26,247.37,253.25,249.35,255.69,249.35z"/>
<path class="st9" d="M260.12,284.8V271.5c0-2.45-1.99-4.43-4.43-4.43c-2.45,0-4.43,1.99-4.43,4.43v13.29c0,2.45,1.99,4.43,4.43,4.43
	C258.14,289.23,260.12,287.24,260.12,284.8z"/>
<path class="st9" d="M295.57,320.24c-2.45,0-4.43,1.99-4.43,4.43v13.29c0,2.45,1.99,4.43,4.43,4.43c2.45,0,4.43-1.99,4.43-4.43
	v-13.29C300,322.23,298.01,320.24,295.57,320.24z"/>
<path class="st9" d="M264.33,199.21c-0.78-2.32-3.28-3.58-5.61-2.8c-2.32,0.78-3.58,3.28-2.8,5.61l4.43,13.29
	c0.62,1.86,2.35,3.03,4.2,3.03c0.46,0,0.93-0.08,1.4-0.23c2.32-0.78,3.58-3.28,2.8-5.61L264.33,199.21z"/>
<path class="st9" d="M277.85,311.38c-2.45,0-4.43,1.99-4.43,4.43v22.15c0,2.45,1.99,4.43,4.43,4.43s4.43-1.99,4.43-4.43v-22.15
	C282.28,313.37,280.29,311.38,277.85,311.38z"/>
<path class="st9" d="M260.12,302.52c-2.45,0-4.43,1.99-4.43,4.43v48.74c0,2.45,1.99,4.43,4.43,4.43s4.43-1.99,4.43-4.43v-48.74
	C264.55,304.51,262.57,302.52,260.12,302.52z"/>
<path class="st9" d="M291.14,269.17c0-13.65-3.23-27.32-9.33-39.52c-1.09-2.19-3.75-3.08-5.95-1.98c-2.19,1.09-3.08,3.76-1.98,5.95
	c5.49,10.98,8.4,23.28,8.4,35.56v28.92c0,2.45,1.99,4.43,4.43,4.43s4.43-1.99,4.43-4.43L291.14,269.17L291.14,269.17z"/>
<path class="st10" d="M138.82,20.17c1.82,0,3.3-1.48,3.3-3.3v-6.59c0-1.82-1.48-3.3-3.3-3.3c-1.82,0-3.3,1.48-3.3,3.3v6.59
	C135.52,18.69,136.99,20.17,138.82,20.17z"/>
<path class="st10" d="M109.67,30.31c1.29,1.29,3.37,1.29,4.66,0c1.29-1.29,1.29-3.37,0-4.66l-4.66-4.66c-1.29-1.29-3.37-1.29-4.66,0
	c-1.29,1.29-1.29,3.37,0,4.66L109.67,30.31z"/>
<path class="st10" d="M94.31,58.09h6.59c1.82,0,3.3-1.48,3.3-3.3s-1.48-3.3-3.3-3.3h-6.59c-1.82,0-3.3,1.48-3.3,3.3
	S92.48,58.09,94.31,58.09z"/>
<path class="st10" d="M114.34,79.27c-1.29-1.29-3.37-1.29-4.66,0l-4.66,4.66c-1.29,1.29-1.29,3.37,0,4.66
	c1.29,1.29,3.37,1.29,4.66,0l4.66-4.66C115.62,82.64,115.62,80.55,114.34,79.27z"/>
<path class="st10" d="M142.11,92.7c0-1.82-1.48-3.3-3.3-3.3c-1.82,0-3.3,1.48-3.3,3.3v6.59c0,1.82,1.48,3.3,3.3,3.3
	c1.82,0,3.3-1.48,3.3-3.3V92.7z"/>
<path class="st10" d="M172.62,88.59c1.29-1.29,1.29-3.37,0-4.66l-4.66-4.66c-1.29-1.29-3.37-1.29-4.66,0
	c-1.29,1.29-1.29,3.37,0,4.66l4.66,4.66C169.25,89.88,171.33,89.88,172.62,88.59z"/>
<path class="st10" d="M183.33,51.49h-6.59c-1.82,0-3.3,1.48-3.3,3.3s1.48,3.3,3.3,3.3h6.59c1.82,0,3.3-1.48,3.3-3.3
	S185.15,51.49,183.33,51.49z"/>
<path class="st10" d="M167.96,30.31l4.66-4.66c1.29-1.29,1.29-3.37,0-4.66c-1.29-1.29-3.37-1.29-4.66,0l-4.66,4.66
	c-1.29,1.29-1.29,3.37,0,4.66C164.58,31.6,166.67,31.6,167.96,30.31z"/>
<circle class="st11" cx="138.82" cy="54.79" r="28.02"/>
<path class="st12" d="M115.74,54.79c0-14.64,11.23-26.65,25.55-27.9c-0.82-0.07-1.64-0.13-2.47-0.13
	c-15.48,0-28.02,12.55-28.02,28.02s12.55,28.02,28.02,28.02c0.83,0,1.66-0.05,2.47-0.13C126.97,81.43,115.74,69.43,115.74,54.79z"/>
<path class="st9" d="M138.82,21.82c-2.73,0-4.95-2.22-4.95-4.95v-6.59c0-2.73,2.22-4.95,4.95-4.95s4.95,2.22,4.95,4.95v6.59
	C143.76,19.6,141.54,21.82,138.82,21.82z M138.82,8.63c-0.91,0-1.65,0.74-1.65,1.65v6.59c0,0.91,0.74,1.65,1.65,1.65
	c0.91,0,1.65-0.74,1.65-1.65v-6.59C140.46,9.37,139.72,8.63,138.82,8.63z"/>
<path class="st9" d="M112,32.92c-1.27,0-2.53-0.48-3.5-1.44l-4.66-4.66c-0.93-0.93-1.45-2.18-1.45-3.5s0.51-2.56,1.45-3.5
	c1.87-1.87,5.13-1.87,6.99,0l4.66,4.66c1.93,1.93,1.93,5.07,0,6.99l0,0C114.54,32.44,113.27,32.92,112,32.92z M107.34,21.67
	c-0.44,0-0.85,0.17-1.17,0.48s-0.48,0.73-0.48,1.17s0.17,0.85,0.48,1.17l4.66,4.66c0.64,0.64,1.69,0.64,2.33,0
	c0.64-0.64,0.64-1.69,0-2.33l-4.66-4.66C108.2,21.84,107.78,21.67,107.34,21.67L107.34,21.67z"/>
<path class="st9" d="M100.9,59.73h-6.59c-2.73,0-4.95-2.22-4.95-4.95s2.22-4.95,4.95-4.95h6.59c2.73,0,4.95,2.22,4.95,4.95
	S103.63,59.73,100.9,59.73z M94.31,53.14c-0.91,0-1.65,0.74-1.65,1.65c0,0.91,0.74,1.65,1.65,1.65h6.59c0.91,0,1.65-0.74,1.65-1.65
	c0-0.91-0.74-1.65-1.65-1.65H94.31z"/>
<path class="st9" d="M107.34,91.21c-1.32,0-2.56-0.51-3.5-1.45s-1.45-2.18-1.45-3.5c0-1.32,0.51-2.56,1.45-3.5l4.66-4.66
	c1.93-1.93,5.06-1.93,6.99,0l0,0c1.93,1.93,1.93,5.07,0,6.99l-4.66,4.66C109.91,90.69,108.66,91.21,107.34,91.21z M112,79.95
	c-0.42,0-0.84,0.16-1.17,0.48l-4.66,4.66c-0.31,0.31-0.48,0.73-0.48,1.17c0,0.44,0.17,0.85,0.48,1.17c0.62,0.62,1.71,0.62,2.33,0
	l4.66-4.66c0.64-0.64,0.64-1.69,0-2.33C112.85,80.11,112.43,79.95,112,79.95L112,79.95z"/>
<path class="st9" d="M138.82,104.24c-2.73,0-4.95-2.22-4.95-4.95V92.7c0-2.73,2.22-4.95,4.95-4.95s4.95,2.22,4.95,4.95v6.59
	C143.76,102.03,141.54,104.24,138.82,104.24z M138.82,91.06c-0.91,0-1.65,0.74-1.65,1.65v6.59c0,0.91,0.74,1.65,1.65,1.65
	c0.91,0,1.65-0.74,1.65-1.65V92.7C140.46,91.8,139.72,91.06,138.82,91.06z"/>
<path class="st9" d="M170.29,91.21c-1.32,0-2.56-0.51-3.5-1.45l-4.66-4.66c-1.93-1.93-1.93-5.07,0-6.99l0,0
	c1.93-1.93,5.06-1.93,6.99,0l4.66,4.66c0.93,0.93,1.45,2.18,1.45,3.5s-0.51,2.56-1.45,3.5S171.61,91.21,170.29,91.21z M164.46,80.43
	c-0.64,0.64-0.64,1.69,0,2.33l4.66,4.66c0.62,0.62,1.71,0.62,2.33,0c0.31-0.31,0.48-0.73,0.48-1.17c0-0.44-0.17-0.85-0.48-1.17
	l-4.66-4.66C166.15,79.79,165.1,79.79,164.46,80.43L164.46,80.43z"/>
<path class="st9" d="M183.33,59.73h-6.59c-2.73,0-4.95-2.22-4.95-4.95s2.22-4.95,4.95-4.95h6.59c2.73,0,4.95,2.22,4.95,4.95
	S186.05,59.73,183.33,59.73z M176.73,53.14c-0.91,0-1.65,0.74-1.65,1.65c0,0.91,0.74,1.65,1.65,1.65h6.59
	c0.91,0,1.65-0.74,1.65-1.65c0-0.91-0.74-1.65-1.65-1.65H176.73z"/>
<path class="st9" d="M165.63,32.92c-1.27,0-2.53-0.48-3.5-1.44l0,0c-1.93-1.93-1.93-5.07,0-6.99l4.66-4.66
	c1.87-1.87,5.13-1.87,6.99,0c0.93,0.93,1.45,2.18,1.45,3.5s-0.51,2.56-1.45,3.5l-4.66,4.66C168.16,32.44,166.89,32.92,165.63,32.92
	L165.63,32.92z M164.46,29.14c0.64,0.64,1.69,0.64,2.33,0l4.66-4.66c0.31-0.31,0.48-0.73,0.48-1.17s-0.17-0.85-0.48-1.17
	c-0.62-0.62-1.71-0.62-2.33,0l-4.66,4.66C163.82,27.46,163.82,28.5,164.46,29.14L164.46,29.14z"/>
<path class="st9" d="M138.82,84.46c-16.36,0-29.67-13.31-29.67-29.67s13.31-29.67,29.67-29.67s29.67,13.31,29.67,29.67
	S155.18,84.46,138.82,84.46z M138.82,28.41c-14.54,0-26.38,11.83-26.38,26.38s11.83,26.38,26.38,26.38
	c14.54,0,26.38-11.83,26.38-26.38S153.36,28.41,138.82,28.41z"/>
<path class="st4" d="M369.15,68.86c0,7.43,6.03,13.47,13.47,13.47h45.8c8.92,0,16.17-7.25,16.17-16.17c0-8-5.85-14.65-13.47-15.92
	V50c0-8.92-7.25-16.17-16.17-16.17c-6.87,0-12.72,4.29-15.06,10.32c-1.8-1.37-4.04-2.24-6.49-2.24c-5.95,0-10.78,4.82-10.78,10.78
	c0,0.94,0.16,1.86,0.4,2.72c-0.13,0-0.27-0.03-0.4-0.03C375.19,55.39,369.15,61.43,369.15,68.86z"/>
<path class="st13" d="M374.54,68.86c0-7.43,6.03-13.47,13.47-13.47c0.13,0,0.27,0.03,0.4,0.03c-0.24-0.86-0.4-1.78-0.4-2.72
	c0-5.01,3.43-9.18,8.06-10.39c-0.86-0.23-1.74-0.39-2.67-0.39c-5.95,0-10.78,4.82-10.78,10.78c0,0.94,0.16,1.86,0.4,2.72
	c-0.13,0-0.27-0.03-0.4-0.03c-7.43,0-13.47,6.03-13.47,13.47c0,7.44,6.03,13.47,13.47,13.47h5.39
	C380.58,82.33,374.54,76.3,374.54,68.86z"/>
<path class="st13" d="M405.28,44.16c2.03-5.22,6.68-9.12,12.35-10.08c-0.87-0.14-1.76-0.24-2.68-0.24c-6.08,0-11.34,3.36-14.1,8.31
	C402.49,42.48,404,43.18,405.28,44.16z"/>
<path class="st9" d="M433.71,48.09c-0.97-9.51-9-16.95-18.75-16.95c-6.68,0-12.85,3.64-16.22,9.24c-1.67-0.73-3.47-1.16-5.33-1.16
	c-7.43,0-13.47,6.03-13.47,13.47c0,0.08,0.03,0.16,0.03,0.24c-7.65,1.27-13.5,7.92-13.5,15.92c0,8.92,7.25,16.17,16.17,16.17h45.8
	c10.4,0,18.86-8.46,18.86-18.86C447.29,57.6,441.54,50.38,433.71,48.09z M428.43,79.64h-45.8c-5.95,0-10.78-4.82-10.78-10.78
	c0-5.44,4.07-9.92,9.29-10.62c2.13,4.66,6.82,7.92,12.26,7.92c1.48,0,2.69-1.21,2.69-2.69c0-1.48-1.21-2.69-2.69-2.69
	c-4.45,0-8.08-3.64-8.08-8.08s3.64-8.08,8.08-8.08c1.16,0,2.26,0.27,3.29,0.73c-0.38,1.51-0.59,3.07-0.59,4.66
	c0,1.48,1.21,2.69,2.69,2.69c1.48,0,2.69-1.21,2.69-2.69c0-1.73,0.3-3.34,0.92-4.9c1.99-5.12,7.06-8.57,12.55-8.57
	c6.46,0,11.85,4.58,13.15,10.81c-6.58,0.11-12.69,3.66-16,9.4c-0.76,1.29-0.32,2.94,0.97,3.69c1.29,0.73,2.94,0.3,3.69-1
	c2.4-4.15,6.87-6.73,11.67-6.73c7.43,0,13.47,6.03,13.47,13.47C441.9,73.61,435.86,79.64,428.43,79.64z"/>
<path class="st14" d="M260.01,89.52c0,4.48,3.63,8.1,8.1,8.1h28.35c4.48,0,8.1-3.63,8.1-8.1s-3.63-8.1-8.1-8.1
	c0-5.59-4.53-10.13-10.13-10.13c-3.75,0-6.99,2.07-8.75,5.1c-0.97-0.67-2.15-1.05-3.4-1.05c-3.36,0-6.08,2.71-6.08,6.08
	C263.63,81.43,260.01,85.05,260.01,89.52z"/>
<path class="st15" d="M281.63,76.4c1.44-2.49,3.89-4.3,6.78-4.88c-0.67-0.14-1.37-0.22-2.08-0.22c-3.3,0-6.2,1.6-8.05,4.05
	C279.52,75.36,280.67,75.74,281.63,76.4z"/>
<path class="st15" d="M264.06,89.52c0-4.48,3.63-8.1,8.1-8.1c0-2.65,1.7-4.88,4.06-5.71c-0.64-0.23-1.32-0.37-2.04-0.37
	c-3.36,0-6.08,2.71-6.08,6.08c-4.48,0-8.1,3.63-8.1,8.1s3.63,8.1,8.1,8.1h4.05C267.68,97.62,264.06,94,264.06,89.52z"/>
<path class="st9" d="M298.32,79.58c-0.89-5.83-5.91-10.31-11.99-10.31c-3.81,0-7.23,1.76-9.46,4.53c-0.87-0.3-1.76-0.48-2.69-0.48
	c-3.83,0-7.03,2.67-7.88,6.26c-4.72,0.85-8.32,4.98-8.32,9.94c0,5.59,4.53,10.13,10.13,10.13h28.35c5.59,0,10.13-4.53,10.13-10.13
	C306.58,84.58,303.02,80.47,298.32,79.58z M296.46,95.6h-28.35c-3.34,0-6.08-2.73-6.08-6.08c0-2.77,1.88-5.08,4.41-5.81
	c0.32,1.13,0.89,2.21,1.7,3.12c0.38,0.45,0.95,0.67,1.5,0.67c0.48,0,0.97-0.16,1.36-0.51c0.83-0.75,0.91-2.03,0.16-2.88
	c-0.67-0.73-1.03-1.7-1.03-2.69c0-2.23,1.82-4.05,4.05-4.05c0.22,0,0.45,0.06,0.67,0.1c-0.43,1.23-0.67,2.57-0.67,3.95
	c0,1.12,0.91,2.03,2.03,2.03c1.12,0,2.03-0.91,2.03-2.03c0-4.48,3.63-8.1,8.1-8.1c3.85,0,7.09,2.71,7.9,6.34
	c-2.07,0.47-3.95,1.56-5.37,3.16c-0.75,0.85-0.67,2.13,0.18,2.85c0.83,0.75,2.11,0.67,2.85-0.16c1.15-1.32,2.82-2.07,4.56-2.07
	c3.34,0,6.08,2.73,6.08,6.08C302.53,92.87,299.8,95.6,296.46,95.6z"/>
</svg>
